<?xml version="1.0" encoding="UTF-8"?>
<svg version="1.1" xmlns="http://www.w3.org/2000/svg" width="1024" height="1024">
<path d="M0 0 C337.92 0 675.84 0 1024 0 C1024 337.92 1024 675.84 1024 1024 C686.08 1024 348.16 1024 0 1024 C0 686.08 0 348.16 0 0 Z " fill="#6B2478" transform="translate(0,0)"/>
<path d="M0 0 C0.65648738 -0.00453111 1.31297475 -0.00906223 1.98935568 -0.01373065 C4.19338389 -0.02641043 6.39716612 -0.02475201 8.60122681 -0.02310181 C10.17974669 -0.02908485 11.75826365 -0.03588987 13.33677673 -0.04345703 C17.62813586 -0.06114742 21.91941526 -0.06581369 26.21080732 -0.0670886 C29.79185316 -0.06898638 33.37288038 -0.07634255 36.95391905 -0.08343279 C45.40228252 -0.09972601 53.85060335 -0.10460091 62.29898071 -0.10317993 C71.0167146 -0.10197833 79.73420098 -0.12308156 88.45187223 -0.15466726 C95.93391409 -0.18081099 103.41587502 -0.19154802 110.89796221 -0.19026911 C115.36779705 -0.1897589 119.837412 -0.19547442 124.30720139 -0.21662521 C128.51140894 -0.23597558 132.71518616 -0.23615424 136.9194088 -0.22159195 C138.46214742 -0.21949873 140.00491275 -0.22423531 141.54760551 -0.23631287 C143.65472115 -0.25174026 145.76034829 -0.24247624 147.86743164 -0.22705078 C149.63557755 -0.22868508 149.63557755 -0.22868508 151.43944359 -0.2303524 C155.22984541 0.37414094 156.86232006 1.58307342 159.56069946 4.26742554 C161.0428772 7.3699646 161.0428772 7.3699646 162.24429321 11.03305054 C162.46528687 11.69455612 162.68628052 12.35606171 162.91397095 13.03761292 C163.62706619 15.1920425 164.31399546 17.35366201 164.99819946 19.51742554 C165.48436617 21.02149167 165.97077778 22.52547866 166.45742798 24.02938843 C173.12583896 44.82817026 177.78604616 65.58750734 180.56069946 87.26742554 C180.66599976 88.06511353 180.77130005 88.86280151 180.87979126 89.68466187 C181.79545791 97.50079239 181.76015204 105.34643941 181.74819946 113.20492554 C181.74759521 113.93863373 181.74699097 114.67234192 181.74636841 115.42828369 C181.72091927 126.82468825 181.28752571 137.99143784 179.56069946 149.26742554 C179.36734009 150.58371948 179.36734009 150.58371948 179.17007446 151.92660522 C173.00360814 193.33613948 161.73337805 233.58043103 148.0128479 273.07015991 C146.801731 276.55822522 145.61823855 280.05492977 144.4433136 283.55532837 C143.35104268 286.79768257 142.23596778 290.03204901 141.12319946 293.26742554 C140.73446655 294.43112671 140.34573364 295.59482788 139.94522095 296.79379272 C139.57211792 297.85759155 139.19901489 298.92139038 138.81460571 300.01742554 C138.49822144 300.94039429 138.18183716 301.86336304 137.85586548 302.81430054 C136.11818112 306.10558281 134.78157629 307.3200887 131.56069946 309.26742554 C127.90564343 309.85632462 124.28692935 309.79313265 120.59170532 309.75326538 C119.48549332 309.75706207 118.37928131 309.76085876 117.23954773 309.76477051 C113.58459077 309.77217734 109.93042948 309.75079177 106.27554321 309.72836304 C103.73636468 309.72597877 101.19718436 309.72507325 98.65800476 309.72558594 C93.33760693 309.72245775 88.0174847 309.7063765 82.69717407 309.67904663 C76.5492239 309.64758164 70.40152385 309.63705111 64.25349897 309.63851774 C58.33372359 309.63973911 52.41402014 309.62930477 46.4942646 309.61293411 C43.97722426 309.60656295 41.46017656 309.60262647 38.94312859 309.6011467 C35.42872419 309.59681816 31.91463576 309.57932676 28.40029907 309.55795288 C27.35655121 309.55885925 26.31280334 309.55976562 25.23742676 309.56069946 C24.27994034 309.55216949 23.32245392 309.54363953 22.33595276 309.53485107 C21.50545882 309.53149939 20.67496489 309.5281477 19.81930447 309.52469444 C17.30233437 309.23799617 15.70074546 308.60926646 13.56069946 307.26742554 C12.32461548 305.15463257 12.32461548 305.15463257 11.25210571 302.40023804 C10.82945435 301.31516968 10.40680298 300.23010132 9.97134399 299.1121521 C9.49769727 297.83184097 9.02771918 296.55016885 8.56069946 295.26742554 C8.17237946 294.20316345 8.17237946 294.20316345 7.7762146 293.11740112 C5.61612101 287.1487509 3.54576375 281.15047958 1.49819946 275.14242554 C1.17221771 274.18700867 0.84623596 273.2315918 0.51037598 272.2472229 C-16.65263729 221.75019534 -32.94787185 168.15757608 -32.81430054 114.39242554 C-32.8134848 113.13566513 -32.8134848 113.13566513 -32.81265259 111.85351562 C-32.72316152 81.55649451 -26.68259614 52.52870075 -17.81430054 23.64242554 C-17.44216431 22.4268396 -17.07002808 21.21125366 -16.68661499 19.95883179 C-10.39441607 0.02957432 -10.39441607 0.02957432 0 0 Z " fill="#FDFDFD" transform="translate(437.4393005371094,285.7325744628906)"/>
<path d="M0 0 C2.19086263 -0.01664318 4.38166917 -0.04404121 6.57226562 -0.08203125 C9.74922505 -0.13671214 12.9249289 -0.15864868 16.10229492 -0.17333984 C17.56804207 -0.2073439 17.56804207 -0.2073439 19.06340027 -0.24203491 C23.48690014 -0.22825325 25.91573321 -0.0811695 29.70678711 2.34155273 C32.22580857 6.36460891 32.29740523 9.35042239 32.21948242 14.01025391 C32.22189438 14.83714218 32.22430634 15.66403046 32.22679138 16.51597595 C32.22581473 18.25833956 32.21246429 20.00073489 32.1875 21.74291992 C32.15313581 24.40797292 32.16686156 27.06971806 32.1862793 29.73486328 C32.17938186 31.43084091 32.1697104 33.12681001 32.15698242 34.82275391 C32.16194229 35.61762711 32.16690216 36.41250031 32.17201233 37.23146057 C32.10066103 40.58515302 31.82712826 42.95485581 30.09082031 45.85595703 C26.48469906 48.01096749 23.09559444 47.85723826 19.02026367 47.78369141 C17.30151282 47.79330568 15.58276283 47.80307638 13.86401367 47.81298828 C11.17184875 47.80443164 8.47992675 47.78771672 5.7878418 47.76538086 C-10.18914434 47.67407417 -10.18914434 47.67407417 -23.84692383 55.41259766 C-24.36254883 56.05197266 -24.87817383 56.69134766 -25.40942383 57.35009766 C-25.94567383 57.98947266 -26.48192383 58.62884766 -27.03442383 59.28759766 C-29.70791736 63.29783796 -30.65904144 66.83375379 -30.66770935 71.62715149 C-30.67453735 72.67108566 -30.68136536 73.71501984 -30.68840027 74.79058838 C-30.68584732 75.92566833 -30.68329437 77.06074829 -30.68066406 78.23022461 C-30.68850418 80.03619362 -30.68850418 80.03619362 -30.69650269 81.87864685 C-30.70674395 84.49398421 -30.71346079 87.10905906 -30.71438408 89.72439003 C-30.7163331 93.87526855 -30.73443679 98.02598193 -30.75514221 102.17680359 C-30.80423858 112.49585422 -30.83508055 122.81495004 -30.85644531 133.13409424 C-30.87305281 141.13943499 -30.89613208 149.14463439 -30.93946606 157.14988106 C-30.95751488 160.59215321 -30.96987959 164.03423325 -30.96816826 167.47655678 C-30.96945746 193.08626876 -32.68663465 214.80296999 -49.40942383 235.35009766 C-49.85415039 235.95724609 -50.29887695 236.56439453 -50.75708008 237.18994141 C-54.6097622 242.19724997 -59.64387411 245.83435929 -64.64819336 249.61962891 C-68.03022572 252.03661068 -68.03022572 252.03661068 -70.40942383 255.35009766 C-70.91529774 258.24428676 -70.91529774 258.24428676 -70.40942383 261.35009766 C-68.2672934 263.82015208 -68.2672934 263.82015208 -65.34692383 265.85009766 C-63.83485352 267.0121875 -63.83485352 267.0121875 -62.29223633 268.19775391 C-60.86524414 269.26316406 -60.86524414 269.26316406 -59.40942383 270.35009766 C-43.60416242 282.61916245 -34.39565902 301.05780344 -31.7935009 320.66943741 C-31.21449636 326.21811275 -31.12531484 331.7123487 -31.13818359 337.28710938 C-31.13295685 338.49549973 -31.1277301 339.70389008 -31.12234497 340.94889832 C-31.10956234 344.2150615 -31.10506325 347.48111363 -31.10350156 350.74729681 C-31.09897889 354.18818924 -31.08095172 357.62900652 -31.06370544 361.06985474 C-31.01487845 371.27038075 -30.98361331 381.47094981 -30.96240234 391.67156982 C-30.94584588 399.62701137 -30.92298602 407.58230947 -30.8793816 415.537655 C-30.8612501 418.95271153 -30.84897879 422.3675717 -30.8506794 425.78268051 C-30.85048719 429.58512028 -30.83221193 433.38708693 -30.81005859 437.18945312 C-30.81463577 438.3075386 -30.81921295 439.42562408 -30.82392883 440.57759094 C-30.7548013 448.04744104 -30.09482705 454.05088798 -25.22192383 460.03759766 C-17.3587309 466.50288962 -11.76395197 468.47441658 -1.59301758 468.52587891 C0.15764568 468.5490626 1.90829679 468.57317933 3.65893555 468.59814453 C6.41317062 468.63335108 9.16695322 468.66266497 11.92138672 468.67602539 C14.5838026 468.691459 17.2449105 468.73161725 19.90698242 468.77587891 C20.73202774 468.77397049 21.55707306 468.77206207 22.40711975 468.77009583 C27.97144693 468.8896273 27.97144693 468.8896273 30.60839844 470.85083008 C32.04548492 474.50766685 32.01846582 478.0423017 31.98901367 481.91259766 C31.99331894 483.15505249 31.99331894 483.15505249 31.99771118 484.42260742 C31.99974935 486.17090541 31.99423673 487.91922632 31.98168945 489.66748047 C31.96563171 492.34085159 31.98154588 495.01271096 32.00073242 497.68603516 C31.99874995 499.38655932 31.99490618 501.08708255 31.98901367 502.78759766 C31.99508636 503.58560791 32.00115906 504.38361816 32.00741577 505.20581055 C31.95179199 509.60311054 31.72550502 512.19680885 28.59057617 515.35009766 C26.36335754 515.85803223 26.36335754 515.85803223 23.73046875 515.86767578 C22.74125931 515.88028442 21.75204987 515.89289307 20.73286438 515.90588379 C19.12522469 515.8937384 19.12522469 515.8937384 17.48510742 515.88134766 C16.37310471 515.88517456 15.26110199 515.88900146 14.11540222 515.89294434 C11.75238139 515.89567058 9.38933074 515.88825989 7.02636719 515.87158203 C3.46176857 515.85044567 -0.10075308 515.87122346 -3.6652832 515.89697266 C-19.07598373 515.91698524 -33.64983209 515.1326719 -47.59692383 507.85009766 C-48.24854492 507.51534424 -48.90016602 507.18059082 -49.5715332 506.83569336 C-65.0851026 498.39726327 -77.3483195 483.23075177 -82.40942383 466.35009766 C-86.33596997 452.72228047 -85.82391865 438.87679304 -85.78380847 424.8142333 C-85.7782269 421.36367356 -85.79285677 417.9132068 -85.8061676 414.462677 C-85.84206673 404.23420781 -85.84859627 394.00574833 -85.84606934 383.77722168 C-85.84435099 375.80516544 -85.85165814 367.83333812 -85.8860479 359.86134541 C-85.89997916 356.44103782 -85.90608118 353.02111512 -85.89300346 349.60079575 C-85.88114512 345.78503238 -85.8936825 341.97002328 -85.91113281 338.15429688 C-85.90138931 337.04640808 -85.89164581 335.93851929 -85.88160706 334.79705811 C-86.01673394 319.89260487 -91.47029723 307.68898422 -101.34692383 296.66259766 C-109.62201883 288.78289968 -121.08356915 284.31080648 -131.95629883 281.33447266 C-135.5073891 279.90951286 -137.70264282 277.76365967 -139.40942383 274.35009766 C-139.69235933 269.71282059 -139.72314721 265.07478126 -139.75952148 260.4296875 C-139.77604813 258.88363558 -139.80329527 257.33765904 -139.84155273 255.79199219 C-139.8965854 253.55575182 -139.91823478 251.32130081 -139.93286133 249.08447266 C-139.9555307 248.39987976 -139.97820007 247.71528687 -140.0015564 247.00994873 C-139.98525688 243.27096677 -139.39997917 240.86585916 -137.12695312 237.9699707 C-134.72359896 235.65298269 -133.53361899 234.53983091 -130.40551758 233.69775391 C-129.30312744 233.37508545 -129.30312744 233.37508545 -128.1784668 233.04589844 C-127.40905762 232.83690918 -126.63964844 232.62791992 -125.84692383 232.41259766 C-111.26802643 227.98091909 -99.34903117 220.89641606 -91.82013702 207.23186111 C-87.2330731 197.86154175 -85.82298114 188.72251776 -85.92700195 178.39404297 C-85.92308945 177.17099457 -85.91917694 175.94794617 -85.91514587 174.68783569 C-85.90920746 172.0548351 -85.91023787 169.422997 -85.92356873 166.79013824 C-85.94416892 162.60888235 -85.93381465 158.4280262 -85.91931152 154.24676514 C-85.89046388 144.61328319 -85.90095459 134.97992428 -85.91201019 125.34642029 C-85.92173727 116.51656525 -85.92270198 107.68692521 -85.89212942 98.85710597 C-85.88106387 95.38967268 -85.87812961 91.92265581 -85.89527893 88.45523834 C-86.00518236 62.91098125 -84.01443704 40.70410496 -65.40942383 21.35009766 C-46.77165826 3.1567939 -24.89322427 0.13866004 0 0 Z " fill="#FDFDFD" transform="translate(253.409423828125,218.64990234375)"/>
<path d="M0 0 C0.95521545 -0.00145523 1.91043091 -0.00291046 2.89459229 -0.00440979 C4.92210935 -0.00274945 6.94963885 0.00882692 8.97705078 0.02954102 C12.02563603 0.058102 15.07243672 0.05023093 18.12109375 0.03710938 C44.7256386 0.06553391 65.80804364 6.01592146 85.04296875 25.20703125 C98.26491202 39.58633295 102.64164972 58.25418439 102.59936523 77.22265625 C102.60459198 78.45651062 102.60981873 79.69036499 102.61520386 80.96160889 C102.62540029 83.62543384 102.63215699 86.28900166 102.63308525 88.95281982 C102.63504239 93.1738595 102.65318369 97.39473865 102.67384338 101.61572266 C102.72280293 112.09590228 102.75388818 122.57612497 102.77514648 133.05639648 C102.79171256 141.21290662 102.81462942 149.3692771 102.85816723 157.52569389 C102.87981477 161.71279798 102.88801373 165.89963586 102.88577449 170.08679199 C102.88784689 173.31442873 102.90923404 176.54195169 102.92749023 179.76953125 C102.92291306 180.91476257 102.91833588 182.0599939 102.91362 183.2399292 C102.9955232 192.37700916 104.70794614 200.2276666 109.203125 208.24609375 C109.67492187 209.1071875 110.14671875 209.96828125 110.6328125 210.85546875 C118.83540329 223.6318544 131.74932041 230.23374443 146.00390625 234.25 C146.79152344 234.47558594 147.57914063 234.70117188 148.390625 234.93359375 C149.06222656 235.09730469 149.73382812 235.26101563 150.42578125 235.4296875 C153.46871348 237.13547908 154.62770386 239.49319468 156.328125 242.49609375 C156.84570312 245.92773437 156.84570312 245.92773437 156.859375 249.65234375 C156.8632019 250.31770142 156.86702881 250.98305908 156.87097168 251.6685791 C156.87367813 253.06699142 156.86640594 254.46545547 156.84960938 255.86376953 C156.82817563 257.99106869 156.8494481 260.114992 156.875 262.2421875 C156.87235649 263.60808029 156.86723102 264.973971 156.859375 266.33984375 C156.85486328 267.56896484 156.85035156 268.79808594 156.84570312 270.06445312 C156.22860071 274.15595859 154.94344884 276.3188382 152.328125 279.49609375 C149.62039155 280.72688168 147.14784741 281.62023703 144.328125 282.49609375 C128.30431494 288.14433331 115.47026353 295.10624081 107.54296875 310.78515625 C104.32801414 317.95936364 102.20754235 324.98869448 102.19682312 332.89376831 C102.19281494 333.96439011 102.18880676 335.0350119 102.18467712 336.13807678 C102.18520584 337.30278 102.18573456 338.46748322 102.1862793 339.66748047 C102.18106766 341.51974998 102.18106766 341.51974998 102.17575073 343.40943909 C102.16839963 346.09182128 102.1627233 348.77415406 102.15946007 351.45653915 C102.15352277 355.71212524 102.13695345 359.96762886 102.11811829 364.22317505 C102.111781 365.68411822 102.10545538 367.14506144 102.09914112 368.60600471 C102.09597531 369.33765665 102.0928095 370.06930859 102.08954775 370.8231318 C102.04760867 380.72354432 102.01454821 390.62391868 102.00219727 400.52441406 C101.99377066 407.21066727 101.97110847 413.89671593 101.9328416 420.58286679 C101.91322795 424.11289185 101.90062656 427.64261221 101.90567589 431.17269516 C101.93542411 456.93841736 99.23823099 477.00786448 80.5 496.38671875 C65.73114592 510.16270869 48.09796758 515.81398514 28.30078125 515.796875 C27.19004745 515.80116013 26.07931366 515.80544525 24.93492126 515.80986023 C22.60627929 515.81556691 20.27761949 515.81613106 17.94897461 515.81176758 C14.37648741 515.80858114 10.80480855 515.83220388 7.23242188 515.85742188 C4.96354271 515.8596925 2.69466132 515.86039947 0.42578125 515.859375 C-0.64292709 515.86858475 -1.71163544 515.87779449 -2.81272888 515.88728333 C-4.29556114 515.87794014 -4.29556114 515.87794014 -5.80834961 515.8684082 C-7.11212807 515.86935234 -7.11212807 515.86935234 -8.44224548 515.87031555 C-10.671875 515.49609375 -10.671875 515.49609375 -12.45158386 514.22062683 C-14.65326776 511.10917531 -14.09659966 507.23827239 -14.0703125 503.55859375 C-14.07318268 502.68211182 -14.07605286 501.80562988 -14.07901001 500.90258789 C-14.08105098 499.04996087 -14.07551878 497.19731233 -14.06298828 495.34472656 C-14.04693484 492.50667196 -14.06283555 489.67004148 -14.08203125 486.83203125 C-14.08004882 485.03254894 -14.07620516 483.23306751 -14.0703125 481.43359375 C-14.07942154 480.15850952 -14.07942154 480.15850952 -14.0887146 478.85766602 C-14.01812045 472.95331841 -14.01812045 472.95331841 -12.36651611 470.77233887 C-9.5327974 468.63824709 -6.22992489 469.07599311 -2.8203125 469.08984375 C-2.04684479 469.07900757 -1.27337708 469.06817139 -0.47647095 469.05700684 C2.00014513 469.02273273 4.47630308 469.00716603 6.953125 468.99609375 C26.207449 469.19649424 26.207449 469.19649424 42.328125 459.49609375 C47.45702809 452.13370544 48.03523596 445.2405329 47.92407227 436.48168945 C47.9281308 435.21685226 47.93218933 433.95201508 47.93637085 432.64884949 C47.94510572 429.91613946 47.93851688 427.18406813 47.91971016 424.45141029 C47.8903701 420.11549029 47.89847932 415.78010784 47.91160583 411.44413757 C47.93219961 403.01302145 47.91672796 394.58217055 47.89613342 386.15106964 C47.87094206 375.43835348 47.85833974 364.72578924 47.88608974 354.0130679 C47.89434338 350.41596871 47.89394648 346.81930969 47.87283516 343.2222538 C47.6776506 309.56552588 47.6776506 309.56552588 56.328125 293.87109375 C56.71129883 293.16581543 57.09447266 292.46053711 57.48925781 291.73388672 C63.61600246 280.97193613 72.46846602 272.66344006 82.22753906 265.18408203 C84.61611847 263.29490604 86.19333889 261.79877132 87.44140625 258.99609375 C87.27799768 255.38983557 85.81192258 254.04979953 83.328125 251.49609375 C81.78274633 250.17936805 80.19737024 248.90834134 78.578125 247.68359375 C60.9118737 233.74199866 51.15160257 215.79616371 48.328125 193.49609375 C48.07663818 189.23604606 48.06691555 184.99260481 48.08862305 180.72607422 C48.08660889 179.51143494 48.08459473 178.29679565 48.08251953 177.04534912 C48.07808366 173.75206187 48.08195689 170.45889637 48.08806586 167.16561651 C48.09107009 163.69763155 48.07886231 160.22971046 48.0670929 156.76174927 C48.02957466 144.98259715 48.01116693 133.20352581 48.02270508 121.42431641 C48.02893932 114.89845818 48.01725942 108.37287716 47.98625976 101.84708703 C47.97074051 98.40497778 47.96448036 94.96341472 47.98084068 91.52129745 C47.9952084 87.68287344 47.97885435 83.84568071 47.95581055 80.00732422 C47.96757828 78.88393646 47.97934601 77.76054871 47.99147034 76.6031189 C47.89637003 68.49788454 46.17249082 61.68793205 40.5727644 55.58207512 C34.29330632 49.67542861 27.84010821 48.05753803 19.47265625 48.08984375 C18.64859787 48.07900757 17.82453949 48.06817139 16.97550964 48.05700684 C13.47729848 48.01140404 9.97916813 47.99963418 6.48071289 47.98486328 C3.91525924 47.96917534 1.35042409 47.93619434 -1.21484375 47.90234375 C-2.00344284 47.90536499 -2.79204193 47.90838623 -3.60453796 47.91149902 C-6.67530479 47.86942138 -9.29309487 47.64318095 -12.16723633 46.52709961 C-14.62430659 43.21047337 -14.2410439 39.55997743 -14.203125 35.59375 C-14.2069519 34.71963974 -14.21077881 33.84552948 -14.21472168 32.94493103 C-14.21744326 31.09649504 -14.21006483 29.2480207 -14.19335938 27.3996582 C-14.17197792 24.57220337 -14.19313838 21.74729687 -14.21875 18.91992188 C-14.21610626 17.12369231 -14.21098033 15.32746433 -14.203125 13.53125 C-14.21122192 12.68635513 -14.21931885 11.84146027 -14.22766113 10.97096252 C-14.17086568 7.40861292 -14.01173851 5.09881136 -12.24316406 1.96240234 C-8.2588423 -0.30970518 -4.51112575 -0.05547771 0 0 Z " fill="#FDFCFD" transform="translate(753.671875,218.50390625)"/>
<path d="M0 0 C-0.0721875 0.55042969 -0.144375 1.10085938 -0.21875 1.66796875 C-2.79095025 24.71059602 -0.06112458 42.5691364 11 63 C11.05945801 62.3922876 11.11891602 61.7845752 11.18017578 61.15844727 C12.96890441 43.67140136 16.39713796 28.49276482 25 13 C25.66 13 26.32 13 27 13 C34.60323409 29.11073631 39.22552941 44.23194577 41 62 C51.97905008 41.96056879 55.88658641 23.64409237 51 1 C54.13464279 0.01159912 55.55803061 -0.19488934 58.61328125 1.15234375 C70.99041191 9.33808718 81.86118129 20.23548904 85.6015625 35.1484375 C89.19183382 60.84351656 77.9030244 80.13594207 63 100 C62.57460938 100.56783203 62.14921875 101.13566406 61.7109375 101.72070312 C59.30874667 104.90941773 56.86510894 108.06457251 54.40283203 111.20703125 C52.21713106 114.00058988 50.04573376 116.80522541 47.87207031 119.6081543 C46.07950999 121.91560411 44.28019309 124.21766708 42.48046875 126.51953125 C40.22316356 129.4116059 37.99815617 132.32388676 35.80078125 135.26171875 C35.30505615 135.91599854 34.80933105 136.57027832 34.29858398 137.24438477 C33.37255681 138.46770621 32.45611795 139.69836557 31.55102539 140.93725586 C30.3046875 142.5703125 30.3046875 142.5703125 28 145 C24 145 24 145 22.17578125 143.453125 C17.8404278 138.32704671 13.72349584 133.08669125 9.73828125 127.68359375 C6.96347856 123.9277039 4.11489812 120.22984471 1.26977539 116.52709961 C-37.34640644 66.18434831 -37.34640644 66.18434831 -34 37 C-30.76968377 22.57522382 -20.83423241 10.93079236 -8.94921875 2.5546875 C-5.65975321 0.540154 -3.94168904 0 0 0 Z " fill="#FDFCFD" transform="translate(486,660)"/>
<path d="M0 0 C4.24184786 1.41672718 6.96157867 4.49037976 9.98828125 7.6640625 C10.7875 8.46714844 11.58671875 9.27023438 12.41015625 10.09765625 C30.78984304 29.26582073 46.01016122 52.55733126 58.98828125 75.6640625 C59.47022949 76.52161133 59.95217773 77.37916016 60.44873047 78.26269531 C62.02442877 81.0939438 63.57293968 83.93844147 65.11328125 86.7890625 C65.61174561 87.69076172 66.11020996 88.59246094 66.6237793 89.52148438 C67.07664307 90.37548828 67.52950684 91.22949219 67.99609375 92.109375 C68.4048877 92.86750488 68.81368164 93.62563477 69.23486328 94.40673828 C70.18643653 97.2577578 69.96805898 98.84020521 68.98828125 101.6640625 C65.60569158 103.91912228 64.45444942 103.91813754 60.49134827 103.93148804 C59.34867996 103.94001801 58.20601166 103.94854797 57.02871704 103.95733643 C55.77408661 103.95643005 54.51945618 103.95552368 53.22680664 103.95458984 C51.89296593 103.96057377 50.55912869 103.96737901 49.22529602 103.97494507 C45.60133524 103.99262508 41.97746887 103.99730125 38.35346913 103.99857664 C35.32904099 104.00047511 32.30463487 104.00783195 29.2802152 104.01492083 C22.14553903 104.0312096 15.01091333 104.0360893 7.8762207 104.03466797 C0.51378478 104.03346603 -6.84835823 104.05457693 -14.21072 104.0861553 C-20.53012534 104.1122954 -26.84943487 104.12303624 -33.16889387 104.12175715 C-36.94398356 104.12124689 -40.71881292 104.12696506 -44.4938488 104.14811325 C-48.04392043 104.16745811 -51.59348239 104.16764648 -55.14357185 104.15307999 C-57.06794827 104.14998736 -58.99232453 104.16669416 -60.91662598 104.18395996 C-62.63485817 104.1713765 -62.63485817 104.1713765 -64.38780212 104.15853882 C-65.38312926 104.15962835 -66.3784564 104.16071789 -67.40394497 104.16184044 C-70.69617016 103.53341282 -71.89590249 102.19134823 -74.01171875 99.6640625 C-72.12016316 93.42934153 -69.76463859 87.72174056 -66.69921875 81.9765625 C-66.27189453 81.17130127 -65.84457031 80.36604004 -65.40429688 79.53637695 C-57.11689613 64.22021713 -47.41716499 49.6187874 -37.01171875 35.6640625 C-36.22667969 34.60445312 -35.44164062 33.54484375 -34.6328125 32.453125 C-9.55074392 -1.00143723 -9.55074392 -1.00143723 0 0 Z " fill="#FDFDFD" transform="translate(514.01171875,163.3359375)"/>
<path d="M0 0 C7.00284328 2.6089024 11.28011973 9.41771058 15.765625 15.12890625 C18.79754616 18.95792926 21.89417961 22.73082483 25 26.5 C25.60352295 27.23275146 26.2070459 27.96550293 26.82885742 28.72045898 C30.54041942 33.21716865 34.28563021 37.68307997 38.0625 42.125 C39.77294529 44.14406438 41.48051521 46.16550382 43.1875 48.1875 C43.96351563 49.10402344 44.73953125 50.02054688 45.5390625 50.96484375 C46.24804688 51.82207031 46.95703125 52.67929687 47.6875 53.5625 C48.2959375 54.29210937 48.904375 55.02171875 49.53125 55.7734375 C53.63982669 61.76188182 54.6341212 66.77691244 54.60742188 73.87329102 C54.61589142 74.71323608 54.62436096 75.55318115 54.63308716 76.4185791 C54.65635812 79.17634496 54.65748196 81.93354993 54.65625 84.69140625 C54.66335573 86.61759156 54.67105533 88.54377476 54.67932129 90.46995544 C54.69274198 94.49882908 54.69434489 98.5275068 54.68847656 102.55639648 C54.68257178 107.71371193 54.71321547 112.87008883 54.75359344 118.02722263 C54.77946231 122.00185696 54.7823488 125.9762647 54.77870178 129.9509716 C54.78039267 131.85234887 54.79003218 133.75373664 54.80784607 135.6550312 C54.83002854 138.31435983 54.82033965 140.97178039 54.80273438 143.63110352 C54.81599762 144.4120488 54.82926086 145.19299408 54.84292603 145.99760437 C54.75537068 151.70113104 53.27068264 154.19717609 49.1875 158.1875 C45.87679409 159.84285296 42.73949109 159.93064707 39.1875 159.1875 C36.10197238 157.27447288 33.70843648 154.78231007 31.1875 152.1875 C29.97707031 150.97707031 29.97707031 150.97707031 28.7421875 149.7421875 C27.03384623 148.03384623 25.33073735 146.32025707 23.6328125 144.6015625 C20.89626521 141.89998706 18.03770634 139.39671265 15.1171875 136.8984375 C12.34367582 134.439332 9.77941511 131.78862779 7.1796875 129.1484375 C5.28422926 127.28271194 3.33303265 125.54090745 1.3125 123.8125 C-2.7975008 120.28273461 -6.56149523 116.45380758 -10.3671875 112.6015625 C-13.09726873 109.90637048 -15.94753284 107.40788778 -18.86328125 104.91796875 C-21.7287443 102.37408071 -24.38588554 99.63810195 -27.05078125 96.88671875 C-28.90559306 94.99660864 -28.90559306 94.99660864 -31.8125 93.1875 C-31.25201537 87.85186283 -30.33027657 83.01312362 -28.765625 77.859375 C-28.55811111 77.16825119 -28.35059723 76.47712738 -28.13679504 75.76506042 C-27.45152337 73.48729482 -26.75730343 71.21237454 -26.0625 68.9375 C-25.06406221 65.64263421 -24.06913279 62.34671251 -23.07421875 59.05078125 C-22.81293686 58.18759781 -22.55165497 57.32441437 -22.28245544 56.43507385 C-20.24236324 49.67444513 -18.27819566 42.89365394 -16.33203125 36.10546875 C-15.46380259 33.09638655 -14.59446038 30.08762837 -13.72473145 27.07897949 C-13.15987014 25.11531352 -12.59937645 23.15038573 -12.04333496 21.1842041 C-11.26076317 18.42002483 -10.46217629 15.66093244 -9.66015625 12.90234375 C-9.43133255 12.07792282 -9.20250885 11.25350189 -8.9667511 10.40409851 C-6.01706437 0.40113762 -6.01706437 0.40113762 0 0 Z " fill="#FDFCFD" transform="translate(632.8125,475.8125)"/>
<path d="M0 0 C2.21642161 4.46110345 3.70680179 9.00231431 5.11303711 13.78295898 C5.30212143 14.42152328 5.49120575 15.06008759 5.6860199 15.71800232 C6.3040749 17.80946529 6.91587849 19.90269558 7.52734375 21.99609375 C7.96159378 23.47241958 8.39613387 24.94866012 8.83094788 26.42481995 C9.74055554 29.51638124 10.64715244 32.60880433 11.55151367 35.7019043 C12.69713832 39.61956298 13.84938672 43.5352335 15.00388241 47.45028591 C15.90296068 50.50151589 16.79878267 53.55369478 17.69366646 56.6061573 C18.11650154 58.04735218 18.54019763 59.4882948 18.9648571 60.92895317 C20.14505352 64.936915 21.29555694 68.95162056 22.41935349 72.97574997 C23.03192269 75.11128888 23.68839758 77.23074162 24.34597778 79.35281372 C24.7613091 80.77918957 25.17540104 82.20592699 25.58813477 83.63305664 C25.8008071 84.28296035 26.01347944 84.93286406 26.2325964 85.60246181 C26.96542695 88.24396355 27.38608738 90.26089833 26.08530426 92.75103664 C24.05332528 95.38846066 21.77626844 97.72428269 19.0859375 99.68359375 C16.56398638 101.57665326 14.2200258 103.52404831 11.875 105.625 C11.24335938 106.16382813 10.61171875 106.70265625 9.9609375 107.2578125 C6.90770829 109.97044244 4.0859685 112.90600453 1.21875 115.8125 C-1.40771122 118.40196881 -4.16976458 120.78836964 -6.96875 123.1875 C-10.03974317 125.92777083 -12.88786876 128.87946902 -15.77734375 131.80859375 C-18.4270144 134.42101068 -21.21172803 136.83302621 -24.03515625 139.25390625 C-26.10820324 141.09615675 -28.05435802 143.02401662 -30 145 C-42.49685561 157.66939602 -42.49685561 157.66939602 -48.3125 158.4375 C-53.17487109 157.86060851 -54.58138701 156.41861299 -58 153 C-59.58275827 149.83448345 -59.17413332 146.42289637 -59.19287109 142.9453125 C-59.20104858 142.11252274 -59.20922607 141.27973297 -59.21765137 140.42170715 C-59.24252927 137.65614542 -59.259033 134.89063533 -59.2734375 132.125 C-59.27876118 131.17948273 -59.28408485 130.23396545 -59.28956985 129.25979614 C-59.3163197 124.24921479 -59.33568336 119.23865843 -59.35009766 114.22802734 C-59.366694 109.06767686 -59.4114242 103.90797143 -59.4624691 98.74786377 C-59.49624533 94.76881232 -59.50768678 90.78991149 -59.51332474 86.81072998 C-59.5200152 84.90984199 -59.53517942 83.00896313 -59.55921555 81.10821533 C-59.6999881 69.29617583 -59.30899133 60.88812561 -51.859375 51.22265625 C-50.81523437 50.15337891 -50.81523437 50.15337891 -49.75 49.0625 C-46.57073811 45.69437106 -43.53793215 42.28951288 -40.625 38.6875 C-37.29982308 34.58026928 -33.92351053 30.52504227 -30.5 26.5 C-27.05809776 22.45249497 -23.66055473 18.37600204 -20.3125 14.25 C-6.86713913 -2.24233114 -6.86713913 -2.24233114 0 0 Z " fill="#FDFDFD" transform="translate(396,477)"/>
<path d="M0 0 C1.41345703 0.76376953 1.41345703 0.76376953 2.85546875 1.54296875 C14.46200052 8.38784646 20.79493765 17.63726649 25.140625 30.33203125 C28.15532808 43.1993321 26.48978714 56.01122765 19.578125 67.328125 C18.15203824 69.33691388 16.64073963 71.16383729 15 73 C14.51144531 73.59167969 14.02289062 74.18335938 13.51953125 74.79296875 C5.91146186 83.30273526 -5.13777752 88.43066665 -16.3984375 89.24609375 C-30.71049848 89.72509782 -42.54748737 85.61751571 -53.25390625 75.96875 C-63.1174216 65.63732595 -67.52243142 53.43180455 -67.24609375 39.37109375 C-66.53783398 29.66905915 -63.59622651 21.91190644 -58 14 C-57.55914062 13.36320312 -57.11828125 12.72640625 -56.6640625 12.0703125 C-52.47548667 6.62274277 -46.93485394 3.3162946 -41 0 C-39.89591797 -0.65742188 -39.89591797 -0.65742188 -38.76953125 -1.328125 C-27.64713745 -6.91885038 -10.7597717 -5.81748422 0 0 Z " fill="#48227A" transform="translate(532,330)"/>
<path d="M0 0 C1.39575256 -0.01292336 1.39575256 -0.01292336 2.81970215 -0.02610779 C5.89570931 -0.0488121 8.9708088 -0.04202098 12.046875 -0.03295898 C14.18392204 -0.03819235 16.32096675 -0.04446777 18.45800781 -0.05174255 C22.93695953 -0.06215486 27.41559369 -0.05757289 31.89453125 -0.04296875 C37.6384116 -0.02577455 43.38129225 -0.04928027 49.12506104 -0.08445835 C53.5379908 -0.1064022 57.95068021 -0.10499823 62.36364746 -0.09669304 C64.48157854 -0.09587197 66.599527 -0.10276492 68.71740723 -0.11746407 C71.67681636 -0.13485524 74.63441428 -0.12041273 77.59375 -0.09765625 C78.47075562 -0.10934845 79.34776123 -0.12104065 80.25134277 -0.13308716 C86.16647257 -0.04039122 86.16647257 -0.04039122 89.37207031 2.87757874 C91.29420541 6.46048253 90.88345291 8.79311176 89.796875 12.53344727 C89.53390625 13.44223633 89.2709375 14.35102539 89 15.28735352 C87.17206087 20.91351044 85.93671571 24.24731609 80.796875 27.53344727 C77.93285332 27.92069605 75.45682564 28.08150136 72.59765625 28.05102539 C71.78565765 28.05803467 70.97365906 28.06504395 70.13705444 28.07226562 C67.4608104 28.08982864 64.78562925 28.07822927 62.109375 28.06469727 C60.24519651 28.06739268 58.38101939 28.07127551 56.5168457 28.07629395 C52.61298211 28.08218669 48.70948501 28.07363328 44.80566406 28.05493164 C39.80520963 28.03214218 34.80561398 28.04526647 29.80519104 28.0692215 C25.95668077 28.08368554 22.10837362 28.07907071 18.25985718 28.06871033 C16.41628925 28.06604472 14.57270279 28.06930697 12.72915649 28.07862854 C10.15097304 28.08880423 7.57417424 28.07327972 4.99609375 28.05102539 C4.23646332 28.05912231 3.47683289 28.06721924 2.69418335 28.07556152 C-2.22265942 27.9970569 -4.75611155 27.04447494 -8.203125 23.53344727 C-11.27097233 18.30908373 -14.15815177 10.66949429 -13.203125 4.53344727 C-9.7022773 -0.53759661 -5.63631243 -0.04194032 0 0 Z " fill="#FDFDFD" transform="translate(473.203125,612.466552734375)"/>
<path d="M0 0 C0.82450653 -0.00960754 1.64901306 -0.01921509 2.49850464 -0.02911377 C3.38603424 -0.03336365 4.27356384 -0.03761353 5.18798828 -0.04199219 C6.10411896 -0.04769226 7.02024963 -0.05339233 7.96414185 -0.05926514 C9.90251512 -0.06871046 11.84090442 -0.07524726 13.77929688 -0.07910156 C16.7400318 -0.0888073 19.70007251 -0.11983505 22.66064453 -0.15136719 C24.544755 -0.15789748 26.42887042 -0.16314785 28.31298828 -0.16699219 C29.19646942 -0.17933899 30.07995056 -0.19168579 30.99020386 -0.20440674 C35.68959862 -0.18743134 39.2471781 -0.16577491 42.88330078 3.16113281 C45.20310573 7.91934663 45.21879025 12.66063722 45.25439453 17.84863281 C45.263423 18.66936279 45.27245148 19.49009277 45.28175354 20.33569336 C45.29620139 22.06360251 45.30512912 23.79156568 45.30883789 25.51953125 C45.3207667 28.1536066 45.37002897 30.78536117 45.42041016 33.41894531 C45.42987231 35.1038298 45.43710834 36.78872856 45.44189453 38.47363281 C45.46142685 39.25504639 45.48095917 40.03645996 45.50108337 40.84155273 C45.46802895 44.87139914 45.07411862 47.45005139 42.56323242 50.68457031 C39.88330078 53.16113281 39.88330078 53.16113281 36.44580078 53.47363281 C34.68236328 53.31894531 34.68236328 53.31894531 32.88330078 53.16113281 C31.53171875 53.4125 31.53171875 53.4125 30.15283203 53.66894531 C26.36306122 54.23944845 22.80249449 54.04349217 19.00830078 53.72363281 C17.97576172 53.64532227 17.97576172 53.64532227 16.92236328 53.56542969 C15.2421732 53.43708183 13.56265329 53.30001056 11.88330078 53.16113281 C11.55330078 53.82113281 11.22330078 54.48113281 10.88330078 55.16113281 C9.83142578 54.99613281 8.77955078 54.83113281 7.69580078 54.66113281 C3.29278205 54.08169394 3.29278205 54.08169394 -1.11669922 54.16113281 C-1.77669922 54.82113281 -2.43669922 55.48113281 -3.11669922 56.16113281 C-3.71482422 56.28488281 -4.31294922 56.40863281 -4.92919922 56.53613281 C-9.00944563 57.7019175 -11.54224447 60.19604884 -13.67919922 63.78613281 C-15.28975896 66.4470576 -16.38275451 66.88529195 -19.11669922 68.16113281 C-19.44669922 69.15113281 -19.77669922 70.14113281 -20.11669922 71.16113281 C-20.26002892 64.56796652 -17.17479396 61.30736524 -12.92919922 56.49316406 C-6.51840968 51.17755107 0.00711008 49.57325891 8.18798828 49.65722656 C9.03378448 49.64780533 9.87958069 49.63838409 10.75100708 49.62867737 C13.42035874 49.60027476 16.08881098 49.59694204 18.75830078 49.59863281 C21.44908035 49.59502393 24.13921959 49.58554272 26.8298645 49.55787659 C28.49585822 49.54108983 30.16206442 49.5382115 31.82809448 49.55088806 C35.97535672 49.61818129 35.97535672 49.61818129 39.59416199 47.87341309 C41.83112853 44.90219408 41.32997252 41.27434082 41.31689453 37.69628906 C41.32213638 36.86657089 41.32737823 36.03685272 41.33277893 35.18199158 C41.33920025 33.42773558 41.33786069 31.67343654 41.3293457 29.91918945 C41.32084216 27.23668581 41.34958269 24.55631626 41.38134766 21.87402344 C41.38295995 20.16894595 41.38238159 18.4638647 41.37939453 16.75878906 C41.39062851 15.95764175 41.40186249 15.15649445 41.41343689 14.33106995 C41.37234994 11.04268026 41.10651063 8.5742587 39.53295898 5.66186523 C35.22166901 3.22000589 30.86381366 3.55757233 25.99267578 3.55175781 C24.93292542 3.53522156 23.87317505 3.5186853 22.78131104 3.50164795 C19.39858247 3.45308726 16.01630373 3.43177845 12.63330078 3.41113281 C10.33900722 3.38297999 8.04473468 3.35305354 5.75048828 3.32128906 C0.12817433 3.24732626 -5.49401269 3.19573102 -11.11669922 3.16113281 C-7.36028867 1.21816184 -4.2497896 0.04005835 0 0 Z " fill="#19125B" transform="translate(243.11669921875,215.8388671875)"/>
<path d="M0 0 C2.1210183 3.48431179 2.30135871 6.34690769 2.40966797 10.38891602 C2.44778595 11.69859848 2.48590393 13.00828094 2.525177 14.35765076 C2.55644348 15.80222314 2.58709404 17.24680896 2.6171875 18.69140625 C2.65487903 20.20757083 2.69279717 21.72372979 2.73092651 23.23988342 C3.12762048 40.06181251 3.1525728 56.88739376 3.13037109 73.71313477 C3.12457126 78.12784558 3.12804066 82.54249693 3.13394356 86.95720577 C3.1375686 90.42410222 3.1364034 93.89098466 3.13381577 97.35788155 C3.13315717 98.9871579 3.13393672 100.61643559 3.13629532 102.24571037 C3.14609374 110.87667454 3.01937046 119.4149826 2 128 C1.34 128 0.68 128 0 128 C0 129.65 0 131.3 0 133 C-0.33 133 -0.66 133 -1 133 C-1.02333692 115.95426486 -1.04098308 98.90853469 -1.05181217 81.86278725 C-1.05697344 73.94855847 -1.06401293 66.0343396 -1.07543945 58.12011719 C-1.08539145 51.22390943 -1.09185466 44.32770885 -1.09408849 37.43149412 C-1.09539472 33.77836238 -1.09847505 30.12525118 -1.10573006 26.47212601 C-1.11375414 22.39888845 -1.1139908 18.32568684 -1.11352539 14.25244141 C-1.11712067 13.03468521 -1.12071594 11.81692902 -1.12442017 10.56227112 C-1.12235817 8.90476585 -1.12235817 8.90476585 -1.12025452 7.21377563 C-1.12117631 6.24958017 -1.1220981 5.28538471 -1.12304783 4.29197121 C-1 2 -1 2 0 0 Z " fill="#8E307B" transform="translate(856,544)"/>
<path d="M0 0 C0.33 0.66 0.66 1.32 1 2 C0.27490234 3.70483398 0.27490234 3.70483398 -0.9140625 5.74609375 C-1.34356201 6.49616699 -1.77306152 7.24624023 -2.21557617 8.01904297 C-2.68068604 8.81713379 -3.1457959 9.61522461 -3.625 10.4375 C-10.90738731 21.26197302 -10.90738731 21.26197302 -13.73828125 33.2265625 C-13.14313178 35.20087436 -13.14313178 35.20087436 -11 36 C-9.2098794 36.09761866 -7.41609928 36.1306959 -5.62332153 36.13371277 C-4.48202789 36.13797775 -3.34073425 36.14224274 -2.16485596 36.14663696 C-0.90663025 36.14618378 0.35159546 36.14573059 1.64794922 36.14526367 C2.98163955 36.14825467 4.31532902 36.15165706 5.64901733 36.15544128 C9.27715555 36.16429218 12.90527021 36.16661987 16.53341818 36.16725707 C19.56027385 36.16820551 22.587124 36.1718831 25.61397755 36.17542917 C32.75486156 36.18357808 39.89573297 36.18601303 47.03662109 36.18530273 C54.40632886 36.18470201 61.77596341 36.19525174 69.14565265 36.2110464 C75.46927354 36.22411691 81.79287049 36.22948683 88.11650479 36.22884732 C91.89488427 36.22859217 95.67319874 36.23145306 99.45156479 36.24202538 C103.00560404 36.25169801 106.55951601 36.25179133 110.11355972 36.24450874 C112.04031234 36.24296242 113.96706493 36.25131574 115.89379883 36.25994873 C117.04073212 36.25575424 118.18766541 36.25155975 119.36935425 36.24723816 C120.86429318 36.24805531 120.86429318 36.24805531 122.38943291 36.24888897 C125.06683332 35.99362817 126.70882068 35.36872529 129 34 C128.67 34.99 128.34 35.98 128 37 C121.73093357 39.63628832 115.27147152 39.28217538 108.56640625 39.25878906 C107.32817108 39.2622937 106.08993591 39.26579834 104.81417847 39.26940918 C101.43397875 39.27668152 98.05402526 39.27500763 94.67383957 39.26865101 C91.12703891 39.26356767 87.58024836 39.26828893 84.03344727 39.27142334 C78.0785942 39.2750562 72.12379083 39.27028176 66.16894531 39.26074219 C59.29621554 39.24985893 52.42360446 39.25338499 45.55087757 39.264395 C39.63728988 39.27348728 33.7237378 39.27474367 27.81014538 39.26951766 C24.28382104 39.26640862 20.75755239 39.2659592 17.23123169 39.27259064 C13.29863922 39.27947026 9.36617841 39.26991965 5.43359375 39.25878906 C4.27286346 39.26283752 3.11213318 39.26688599 1.91622925 39.27105713 C-3.73235496 39.24146541 -8.73594241 39.16507778 -14 37 C-16 34 -16 34 -15.8359375 30.7421875 C-14.94236681 26.74199722 -13.56193516 23.72917048 -11.625 20.125 C-9.4795454 16.06241143 -7.56474812 12.10533643 -6.25 7.6875 C-5.8375 6.470625 -5.425 5.25375 -5 4 C-4.01 3.67 -3.02 3.34 -2 3 C-1.34 2.01 -0.68 1.02 0 0 Z " fill="#1C0761" transform="translate(455,230)"/>
<path d="M0 0 C3.4375 1.1875 3.4375 1.1875 7 3 C7.875 5.5 7.875 5.5 8 8 C8.75150023 11.27773504 8.75150023 11.27773504 12 13 C12.625 14.953125 12.625 14.953125 13 17.25 C13.47319851 20.10890764 13.9215037 21.87982585 15.52351379 24.33242798 C17.76292439 29.895094 17.34442951 35.22732094 17.2487793 41.16552734 C17.23806135 42.50628697 17.22868695 43.84705791 17.22055054 45.18783569 C17.19474643 48.81569057 17.15021078 52.44309964 17.10225272 56.0707202 C17.05527954 59.86627454 17.02561407 63.66196366 16.99409485 67.45767212 C16.93183259 74.63998817 16.85405633 81.82204864 16.77067453 89.00414717 C16.67647872 97.18298226 16.59962578 105.36195171 16.52421319 113.54097819 C16.36874197 130.36087655 16.19154464 147.18047295 16 164 C15.67 164 15.34 164 15 164 C14.99761165 163.38176141 14.99522329 162.76352282 14.99276257 162.12654972 C14.93334433 147.00731007 14.85762615 131.88824453 14.76428509 116.76918125 C14.71952752 109.45738235 14.68006815 102.14562998 14.65356445 94.83374023 C14.63042047 88.45258979 14.59684379 82.07158913 14.55129844 75.6905579 C14.52758413 72.31914722 14.51027229 68.94801594 14.50238609 65.57650948 C14.49258593 32.93014326 14.49258593 32.93014326 1.13671875 3.70703125 C0 2 0 2 0 0 Z " fill="#1C0F4B" transform="translate(207,502)"/>
<path d="M0 0 C0.33 0 0.66 0 1 0 C1.07070277 4.45427442 1.05404477 8.72568315 0.5065918 13.14697266 C0.00211511 17.60867444 -0.17601118 22.00877143 -0.203125 26.49609375 C-0.20995804 27.27945602 -0.21679108 28.0628183 -0.22383118 28.86991882 C-0.24081656 31.39249027 -0.24715644 33.91487473 -0.25 36.4375 C-0.25200409 37.29817078 -0.25400818 38.15884155 -0.256073 39.04559326 C-0.26493869 54.62496245 0.29977455 70.26464458 3.54321289 85.56201172 C4.13659585 88.7290466 4.06301459 91.78625605 4 95 C1.23850448 93.07462396 0.9362549 91.7270175 0.15625 88.38671875 C-0.07823255 86.82259023 -0.29556909 85.25583928 -0.5 83.6875 C-0.61891602 82.81867188 -0.73783203 81.94984375 -0.86035156 81.0546875 C-1.25977818 78.03865151 -1.63094731 75.01989759 -2 72 C-2.14501953 70.86900879 -2.29003906 69.73801758 -2.43945312 68.57275391 C-7.38430251 29.28688883 -7.38430251 29.28688883 -3.41113281 11.34008789 C-2.78357699 8.85657186 -2.78357699 8.85657186 -4 6 C-2.68 5.34 -1.36 4.68 0 4 C0 2.68 0 1.36 0 0 Z " fill="#341B6B" transform="translate(406,362)"/>
<path d="M0 0 C2.39670066 2.39670066 2.98675931 4.43483406 3.375 7.77734375 C2.7186691 11.6674717 -0.18864827 13.61952601 -3.1171875 16.04296875 C-5.33202362 18.34511169 -5.66489264 19.87052968 -6 23 C-6.99 22.67 -7.98 22.34 -9 22 C-9.33 22.66 -9.66 23.32 -10 24 C-10.60457031 24.30164063 -11.20914063 24.60328125 -11.83203125 24.9140625 C-14.233609 26.11701496 -15.78626871 27.48614115 -17.6875 29.375 C-18.28949219 29.96023438 -18.89148438 30.54546875 -19.51171875 31.1484375 C-21.10135013 33.12608914 -21.5905426 34.5214179 -22 37 C-23.32 37 -24.64 37 -26 37 C-26.226875 37.53625 -26.45375 38.0725 -26.6875 38.625 C-29.82676141 44.30556826 -34.34005186 48.33266353 -39.23046875 52.484375 C-41.08344907 54.03207632 -41.08344907 54.03207632 -43 56 C-43.99 56 -44.98 56 -46 56 C-47.61325284 57.3931017 -47.61325284 57.3931017 -49.0625 59.25 C-49.56910156 59.85328125 -50.07570313 60.4565625 -50.59765625 61.078125 C-52.06943432 62.96127786 -52.06943432 62.96127786 -52.99609375 65.171875 C-54 67 -54 67 -57 68 C-57 68.66 -57 69.32 -57 70 C-58.0828125 70.0928125 -58.0828125 70.0928125 -59.1875 70.1875 C-62.84657625 71.24456647 -64.49211602 73.20550071 -67 76 C-67.66 75.67 -68.32 75.34 -69 75 C-65.11749866 71.02456645 -61.21676477 67.1227364 -57 63.5 C-54.21103607 61.10323412 -51.58009215 58.62040609 -49 56 C-46.44009866 53.40017817 -43.8322046 50.93731602 -41.0625 48.5625 C-38.07198284 45.99334729 -35.26883316 43.30682744 -32.5 40.5 C-29.13885518 37.0928121 -25.66298797 33.92541826 -22.03125 30.8125 C-18.96573669 28.07711889 -16.12246143 25.13106194 -13.23828125 22.20703125 C-11.11657637 20.11494878 -8.93900612 18.13824834 -6.6875 16.1875 C-6.04296875 15.62160156 -5.3984375 15.05570313 -4.734375 14.47265625 C-3.35032908 13.29746411 -1.90280123 12.19717163 -0.4375 11.125 C1.67923627 7.99591161 0.94340307 5.44909904 0.359375 1.828125 C0.24078125 1.22484375 0.1221875 0.6215625 0 0 Z " fill="#401C6F" transform="translate(421,559)"/>
<path d="M0 0 C1.125 1.75 1.125 1.75 2 4 C1.24013946 6.58352584 0.53637969 7.67128944 -1.765625 9.08203125 C-4.29328672 10.12049367 -6.40452638 10.37166081 -9.125 10.5625 C-12.69798773 10.78049065 -12.69798773 10.78049065 -16 12 C-16 11.34 -16 10.68 -16 10 C-17.07652832 10.10828125 -17.07652832 10.10828125 -18.17480469 10.21875 C-30.52381925 11.28837893 -42.86586577 11.07539261 -55.25 11 C-59.69270558 10.9734613 -64.13537047 10.95349797 -68.578125 10.9375 C-69.59569885 10.92920166 -70.61327271 10.92090332 -71.66168213 10.91235352 C-72.59736023 10.90905029 -73.53303833 10.90574707 -74.49707031 10.90234375 C-75.32088196 10.89710693 -76.1446936 10.89187012 -76.99346924 10.88647461 C-79.07248863 10.87125454 -79.07248863 10.87125454 -81 12 C-82.86060876 11.76435667 -84.72077991 11.52455395 -86.578125 11.26443481 C-91.20533079 10.75920878 -95.85064766 10.87905791 -100.5 10.90234375 C-102.11442993 10.90446617 -102.11442993 10.90446617 -103.76147461 10.90663147 C-107.17434555 10.9121962 -110.58714913 10.92474213 -114 10.9375 C-116.3242178 10.94251956 -118.64843663 10.94708167 -120.97265625 10.95117188 C-126.6484602 10.96215407 -132.32422529 10.9788568 -138 11 C-137.34 10.01 -136.68 9.02 -136 8 C-133.77443409 7.63644314 -133.77443409 7.63644314 -130.94721985 7.6526947 C-129.87757492 7.65146103 -128.80792999 7.65022736 -127.70587158 7.6489563 C-126.52716492 7.66288422 -125.34845825 7.67681213 -124.1340332 7.69116211 C-122.89652817 7.69393661 -121.65902313 7.69671112 -120.38401794 7.6995697 C-117.68821376 7.70765764 -114.99307781 7.72120975 -112.29741859 7.74394035 C-108.03171791 7.77969454 -103.76611636 7.7937078 -99.50028992 7.80458069 C-91.20798744 7.8287407 -82.91588348 7.87541722 -74.62369537 7.92417145 C-64.0870132 7.98493599 -53.55030846 8.03473064 -43.01349705 8.06616598 C-38.77701956 8.07952457 -34.54077084 8.10337461 -30.30439627 8.1355685 C-27.04061026 8.15800918 -23.77677848 8.16758809 -20.51293945 8.17944336 C-18.76006119 8.19729889 -18.76006119 8.19729889 -16.97177124 8.21551514 C-11.24389681 8.22389837 -6.40046697 7.96468541 -1 6 C-0.67 4.02 -0.34 2.04 0 0 Z " fill="#4B2A7E" transform="translate(584,260)"/>
<path d="M0 0 C1.15941038 3.47823115 0.70820884 5.45895578 0 9 C0.66 9.33 1.32 9.66 2 10 C1.67 11.98 1.34 13.96 1 16 C0.01 15.67 -0.98 15.34 -2 15 C-2.64757625 16.43671568 -3.29299453 17.87440416 -3.9375 19.3125 C-4.29714844 20.11300781 -4.65679688 20.91351562 -5.02734375 21.73828125 C-6.07846041 24.09489608 -6.07846041 24.09489608 -7 27 C-8.62102968 28.71108689 -10.29503463 30.37253306 -12 32 C-12.825 32.825 -13.65 33.65 -14.5 34.5 C-15.325 35.325 -16.15 36.15 -17 37 C-17.886875 37.928125 -18.77375 38.85625 -19.6875 39.8125 C-22 42 -22 42 -24 42 C-24.33 42.99 -24.66 43.98 -25 45 C-25.66 45 -26.32 45 -27 45 C-28.485 45.495 -28.485 45.495 -30 46 C-30.33 46.99 -30.66 47.98 -31 49 C-35.95 49.495 -35.95 49.495 -41 50 C-37.9847126 47.73853445 -35.08404023 45.8116511 -31.875 43.875 C-16.66611945 34.14697933 -8.20636584 21.72478507 -2 5 C-1.33689525 3.33191298 -0.67133547 1.66479155 0 0 Z " fill="#841962" transform="translate(854,679)"/>
<path d="M0 0 C1 2 1 2 0.3984375 4.26123047 C-0.10816406 5.6749292 -0.10816406 5.6749292 -0.625 7.1171875 C-0.99866699 8.18549805 -1.37233398 9.25380859 -1.75732422 10.35449219 C-2.16740723 11.51625977 -2.57749023 12.67802734 -3 13.875 C-9.51009853 32.83155013 -14.47559363 52.26332434 -18 72 C-18.33 72 -18.66 72 -19 72 C-18.88964039 68.60352587 -18.75912556 65.20811211 -18.625 61.8125 C-18.5940625 60.85279297 -18.563125 59.89308594 -18.53125 58.90429688 C-18.49257813 57.97294922 -18.45390625 57.04160156 -18.4140625 56.08203125 C-18.3826416 55.22843018 -18.3512207 54.3748291 -18.31884766 53.49536133 C-17.96689269 50.74089602 -17.04577966 48.55966254 -16 46 C-16.28739925 43.75759218 -16.28739925 43.75759218 -17 42 C-16.01 42 -15.02 42 -14 42 C-14 41.34 -14 40.68 -14 40 C-15.485 40.495 -15.485 40.495 -17 41 C-16.67 40.01 -16.34 39.02 -16 38 C-15.01 37.505 -15.01 37.505 -14 37 C-11.77886728 32.02466271 -10.65021631 26.63624982 -9.52734375 21.328125 C-8.06775901 14.88432867 -6.20787947 8.80473427 -3 3 C-2.34 3 -1.68 3 -1 3 C-0.67 2.01 -0.34 1.02 0 0 Z " fill="#2A1663" transform="translate(426,289)"/>
<path d="M0 0 C17.49 0 34.98 0 53 0 C51.02 0.99 51.02 0.99 49 2 C48.67 2.33 48.34 2.66 48 3 C37.77456902 4.4653971 27.46712926 3.94459784 17.1875 3.5625 C15.60874592 3.50911218 14.02996974 3.45637386 12.45117188 3.40429688 C8.63381915 3.27699466 4.8168708 3.14098668 1 3 C0.67 2.01 0.34 1.02 0 0 Z " fill="#8A2873" transform="translate(743,734)"/>
<path d="M0 0 C3.36404109 0.56046482 6.58320504 0.7533851 9.99047852 0.86279297 C11.85639648 0.92563477 11.85639648 0.92563477 13.76000977 0.98974609 C15.68780273 1.0487207 15.68780273 1.0487207 17.65454102 1.10888672 C18.96293945 1.15207031 20.27133789 1.19525391 21.61938477 1.23974609 C24.83933899 1.34551101 28.05936632 1.44760251 31.27954102 1.54638672 C31.27954102 1.87638672 31.27954102 2.20638672 31.27954102 2.54638672 C26.55060632 3.54078887 22.18683984 3.51204563 17.40454102 3.10888672 C16.37200195 3.03057617 16.37200195 3.03057617 15.31860352 2.95068359 C13.63841344 2.82233574 11.95889352 2.68526447 10.27954102 2.54638672 C9.94954102 3.20638672 9.61954102 3.86638672 9.27954102 4.54638672 C8.22766602 4.38138672 7.17579102 4.21638672 6.09204102 4.04638672 C1.68902228 3.46694784 1.68902228 3.46694784 -2.72045898 3.54638672 C-3.38045898 4.20638672 -4.04045898 4.86638672 -4.72045898 5.54638672 C-5.31858398 5.67013672 -5.91670898 5.79388672 -6.53295898 5.92138672 C-10.61320539 7.08717141 -13.14600424 9.58130274 -15.28295898 13.17138672 C-16.89351872 15.8323115 -17.98651428 16.27054586 -20.72045898 17.54638672 C-21.05045898 18.53638672 -21.38045898 19.52638672 -21.72045898 20.54638672 C-21.83800864 15.13910252 -20.22637925 12.47453225 -16.72045898 8.35888672 C-12.17416933 3.61744632 -6.9588971 -1.16033661 0 0 Z " fill="#2A2268" transform="translate(244.720458984375,266.45361328125)"/>
<path d="M0 0 C0 3.46936606 -0.31563049 3.79280895 -2.625 6.1875 C-10.84449405 13.97872382 -20.88350894 18.44733955 -31.66967773 21.36572266 C-35.36565754 22.3774113 -38.11428256 23.44386958 -41 26 C-40.63733906 20.56008584 -40.63733906 20.56008584 -37.9375 18.1875 C-34.94197022 16.97654115 -32.2567118 16.60676526 -29.0546875 16.3046875 C-24.08547688 15.56780836 -19.80425098 13.19557083 -16 10 C-15.34 10.33 -14.68 10.66 -14 11 C-13.67 10.34 -13.34 9.68 -13 9 C-11.328125 8.10546875 -11.328125 8.10546875 -9.25 7.1875 C-5.32916737 5.31875783 -2.87303936 3.23216927 0 0 Z " fill="#2D1F67" transform="translate(156,432)"/>
<path d="M0 0 C0 0.99 0 1.98 0 3 C-1.4718767 4.2429181 -2.94929894 5.48089847 -4.47265625 6.66015625 C-6.52881865 8.46389974 -7.65347493 10.64358113 -9 13 C-9.66 13 -10.32 13 -11 13 C-11.33 13.99 -11.66 14.98 -12 16 C-12.639375 16.721875 -13.27875 17.44375 -13.9375 18.1875 C-16.16178295 21.22061312 -16.79658661 23.39219771 -17.5625 26.99609375 C-18.16124479 29.73855874 -19.07365879 32.35331082 -20 35 C-20.99 34.67 -21.98 34.34 -23 34 C-21.18719772 21.28332727 -15.9166744 13.10035122 -7 4 C-6.45988281 3.42507813 -5.91976562 2.85015625 -5.36328125 2.2578125 C-3.67040205 0.69590103 -2.24143687 0.38645463 0 0 Z " fill="#791E6D" transform="translate(879,510)"/>
<path d="M0 0 C0.66 0 1.32 0 2 0 C4.64665573 2.85838819 5.44270682 5.19182992 6 9 C6.65528379 12.61537648 6.65528379 12.61537648 8 16 C8.66 16.33 9.32 16.66 10 17 C9.95875 17.7425 9.9175 18.485 9.875 19.25 C9.80551177 21.92225014 9.80551177 21.92225014 10.90625 23.765625 C12.29891466 26.61063995 12.92411105 29.41325676 13.625 32.5 C13.88539063 33.6240625 14.14578125 34.748125 14.4140625 35.90625 C15 39 15 39 15 43 C14.34 43 13.68 43 13 43 C8.37263494 28.74433075 4.02969515 14.43605076 0 0 Z " fill="#3D1D6F" transform="translate(396,477)"/>
<path d="M0 0 C0.67578125 1.765625 0.67578125 1.765625 1 4 C-0.14453125 5.921875 -0.14453125 5.921875 -1.8125 7.75 C-2.35519531 8.36359375 -2.89789062 8.9771875 -3.45703125 9.609375 C-5 11 -5 11 -7 11 C-7.59732819 13.76264289 -8 16.16032769 -8 19 C-8.8971875 19.3403125 -8.8971875 19.3403125 -9.8125 19.6875 C-12.58532489 21.35119494 -13.43300136 23.20665459 -15 26 C-17.07392706 28.43461003 -19.09555873 29.68831685 -22 31 C-22.66 31.33 -23.32 31.66 -24 32 C-22.62678919 29.04516665 -21.03258055 26.58495618 -19.0234375 24.0234375 C-18.14582764 22.89977783 -18.14582764 22.89977783 -17.25048828 21.75341797 C-16.32212158 20.57610107 -16.32212158 20.57610107 -15.375 19.375 C-14.74706543 18.57336426 -14.11913086 17.77172852 -13.47216797 16.94580078 C-9.01825051 11.26788847 -4.5389497 5.61025459 0 0 Z " fill="#651B6E" transform="translate(540,771)"/>
<path d="M0 0 C0.33 0.66 0.66 1.32 1 2 C0.27490234 3.70483398 0.27490234 3.70483398 -0.9140625 5.74609375 C-1.34356201 6.49616699 -1.77306152 7.24624023 -2.21557617 8.01904297 C-2.68068604 8.81713379 -3.1457959 9.61522461 -3.625 10.4375 C-10.90738731 21.26197302 -10.90738731 21.26197302 -13.73828125 33.2265625 C-13.14313178 35.20087436 -13.14313178 35.20087436 -11 36 C-8.30344554 36.15676775 -5.62870023 36.25836315 -2.9296875 36.31640625 C-2.13345978 36.33718735 -1.33723206 36.35796844 -0.51687622 36.37937927 C2.03032685 36.44484149 4.57763425 36.50374415 7.125 36.5625 C8.85027127 36.6056884 10.57553193 36.64930279 12.30078125 36.69335938 C16.53374685 36.80051945 20.76681753 36.90179623 25 37 C25 37.33 25 37.66 25 38 C19.80393014 38.09895826 14.60841002 38.17150993 9.41162109 38.21972656 C7.64427128 38.2398285 5.87698787 38.26711472 4.10986328 38.30175781 C1.56786715 38.35034009 -0.97324896 38.37298226 -3.515625 38.390625 C-4.69865204 38.42159271 -4.69865204 38.42159271 -5.90557861 38.45318604 C-9.48485527 38.45464645 -11.58557027 38.2972996 -14.53271484 36.18310547 C-16 34 -16 34 -15.9609375 30.6796875 C-14.94381702 26.7848603 -13.5287337 23.66739056 -11.625 20.125 C-9.4795454 16.06241143 -7.56474812 12.10533643 -6.25 7.6875 C-5.8375 6.470625 -5.425 5.25375 -5 4 C-4.01 3.67 -3.02 3.34 -2 3 C-1.34 2.01 -0.68 1.02 0 0 Z " fill="#0C0450" transform="translate(455,230)"/>
<path d="M0 0 C1.216875 0.165 2.43375 0.33 3.6875 0.5 C14.46890334 1.73221597 14.46890334 1.73221597 25 0 C25.99 0.33 26.98 0.66 28 1 C30.80426452 1.08518867 33.5829635 1.1158852 36.38671875 1.09765625 C37.20372757 1.0962413 38.02073639 1.09482635 38.86250305 1.09336853 C41.47087268 1.08777294 44.07915634 1.07522129 46.6875 1.0625 C48.45637897 1.05748443 50.22525928 1.05292162 51.99414062 1.04882812 C56.32946019 1.03780496 60.66471552 1.02054338 65 1 C64.67 1.66 64.34 2.32 64 3 C42.22 3 20.44 3 -2 3 C-1.34 2.01 -0.68 1.02 0 0 Z " fill="#3F2179" transform="translate(436,282)"/>
<path d="M0 0 C0 0.33 0 0.66 0 1 C-0.8971875 1.1959375 -1.794375 1.391875 -2.71875 1.59375 C-20.81581849 5.93106394 -36.29913423 14.13673807 -48 29 C-48.33 28.34 -48.66 27.68 -49 27 C-47.29723274 22.69827219 -46.14371167 20.8835053 -42 19 C-41.319375 18.13375 -40.63875 17.2675 -39.9375 16.375 C-39.298125 15.59125 -38.65875 14.8075 -38 14 C-37.01 14 -36.02 14 -35 14 C-34.67 13.01 -34.34 12.02 -34 11 C-32.42756874 10.24796766 -30.84299585 9.5152033 -29.21875 8.8828125 C-26.63592812 7.85514042 -24.14151652 6.68050073 -21.625 5.5 C-14.36515179 2.20820581 -8.06073295 -0.51451487 0 0 Z " fill="#12104B" transform="translate(230,219)"/>
<path d="M0 0 C0.33 1.32 0.66 2.64 1 4 C0.0925 4.37125 -0.815 4.7425 -1.75 5.125 C-5.49490371 7.28552137 -6.68499225 9.41547187 -9 13 C-11.75 14.875 -11.75 14.875 -14 16 C-13.62671065 21.35048061 -12.0042343 23.50912907 -8 27 C-11.46612104 25.45950176 -14.30927882 23.69072118 -17 21 C-17.625 18.0625 -17.625 18.0625 -17 15 C-13.54102196 11.19449411 -9.65452084 7.94113192 -5.6875 4.6875 C-5.13771484 4.23310547 -4.58792969 3.77871094 -4.02148438 3.31054688 C-2.68287784 2.20474148 -1.34170769 1.10204061 0 0 Z " fill="#26195D" transform="translate(199,459)"/>
<path d="M0 0 C2.39670066 2.39670066 2.98675931 4.43483406 3.375 7.77734375 C2.7186691 11.6674717 -0.18864827 13.61952601 -3.1171875 16.04296875 C-5.33202362 18.34511169 -5.66489264 19.87052968 -6 23 C-6.99 22.67 -7.98 22.34 -9 22 C-9.33 22.66 -9.66 23.32 -10 24 C-10.57234375 24.26554688 -11.1446875 24.53109375 -11.734375 24.8046875 C-14.80264281 26.42346328 -16.83470419 28.64614378 -19.25 31.125 C-20.14203125 32.03507813 -21.0340625 32.94515625 -21.953125 33.8828125 C-22.62859375 34.58148437 -23.3040625 35.28015625 -24 36 C-24.66 35.67 -25.32 35.34 -26 35 C-11.38193615 20.19635526 -11.38193615 20.19635526 -6.3125 15.8125 C-5.42691406 15.04486328 -5.42691406 15.04486328 -4.5234375 14.26171875 C-3.20104541 13.16650684 -1.8231995 12.13892646 -0.4375 11.125 C1.67923627 7.99591161 0.94340307 5.44909904 0.359375 1.828125 C0.24078125 1.22484375 0.1221875 0.6215625 0 0 Z " fill="#29115D" transform="translate(421,559)"/>
<path d="M0 0 C0 0.66 0 1.32 0 2 C0.73863281 2.2475 1.47726562 2.495 2.23828125 2.75 C5.26228221 4.11871331 6.91219751 5.60587126 9.1875 8 C9.86167969 8.70125 10.53585937 9.4025 11.23046875 10.125 C12.10638672 11.053125 12.10638672 11.053125 13 12 C13.66 12.66 14.32 13.32 15 14 C12 14 12 14 9.80859375 12.06640625 C9.02613281 11.24011719 8.24367188 10.41382813 7.4375 9.5625 C3.21579391 5.04185864 3.21579391 5.04185864 -2.625 3.5 C-8.29360138 3.54115137 -11.19772448 7.21393888 -15 11 C-16.65651812 12.34592097 -18.31806068 13.6859849 -20 15 C-20 12 -20 12 -18.390625 10.3515625 C-17.68421875 9.78179687 -16.9778125 9.21203125 -16.25 8.625 C-13.07065678 5.97367491 -10.52217839 3.29823328 -8 0 C-5.13822943 -1.43088528 -3.06624227 -0.59991697 0 0 Z " fill="#1F0D59" transform="translate(515,161)"/>
<path d="M0 0 C0.99 0 1.98 0 3 0 C3 0.66 3 1.32 3 2 C3.66 1.67 4.32 1.34 5 1 C6.99960012 0.960008 9.00047242 0.95653201 11 1 C11.33 1.66 11.66 2.32 12 3 C11.154375 2.87625 10.30875 2.7525 9.4375 2.625 C3.52045429 3.2704959 0.53109186 7.15768802 -3.15234375 11.58984375 C-4.55263209 13.35476414 -5.93661208 15.13279662 -7.30078125 16.92578125 C-9 19 -9 19 -11 20 C-10.625 17.0625 -10.625 17.0625 -10 14 C-9.34 13.67 -8.68 13.34 -8 13 C-7.29848848 11.6846659 -6.63474075 10.34882408 -6 9 C-4 6 -4 6 -1.875 5.3125 C-1.25625 5.209375 -0.6375 5.10625 0 5 C0 3.35 0 1.7 0 0 Z " fill="#200F58" transform="translate(384,474)"/>
<path d="M0 0 C0.99 0.66 1.98 1.32 3 2 C2.67 6.95 2.34 11.9 2 17 C-1.04335527 13.95664473 -1.60305853 12.78878538 -2.6875 8.8125 C-2.93886719 7.91144531 -3.19023437 7.01039063 -3.44921875 6.08203125 C-3.72185547 5.05142578 -3.72185547 5.05142578 -4 4 C-2.68 2.68 -1.36 1.36 0 0 Z " fill="#601F75" transform="translate(496,707)"/>
<path d="M0 0 C0.66 0 1.32 0 2 0 C4.12584008 5.68731242 1.05504865 11.63262137 -1 17 C-2.50384889 19.85901216 -4.13208072 22.35378102 -6 25 C-6 22.30207034 -5.69858029 20.17890855 -5.125 17.5625 C-4.96257812 16.80066406 -4.80015625 16.03882813 -4.6328125 15.25390625 C-4 13 -4 13 -2.9296875 10.90234375 C-1.78046111 8.90366948 -1.78046111 8.90366948 -2 6 C-1.36893571 3.98848259 -0.70626239 1.98636298 0 0 Z " fill="#1D1558" transform="translate(165,406)"/>
<path d="M0 0 C1.78915445 2.68373167 2.39381054 4.00441407 3.0703125 7.01953125 C3.24433594 7.79490234 3.41835938 8.57027344 3.59765625 9.36914062 C3.77167969 10.17544922 3.94570313 10.98175781 4.125 11.8125 C4.30675781 12.60720703 4.48851562 13.40191406 4.67578125 14.22070312 C5.63056712 18.56031257 6.21609067 22.5269231 6 27 C3 23.375 3 23.375 3 20 C2.01 19.67 1.02 19.34 0 19 C0.185625 17.865625 0.37125 16.73125 0.5625 15.5625 C0.706875 14.386875 0.85125 13.21125 1 12 C0.67 11.67 0.34 11.34 0 11 C-0.07226502 9.14712498 -0.0838122 7.29166122 -0.0625 5.4375 C-0.05347656 4.42558594 -0.04445313 3.41367187 -0.03515625 2.37109375 C-0.02355469 1.58863281 -0.01195312 0.80617188 0 0 Z " fill="#3D2072" transform="translate(410,458)"/>
<path d="M0 0 C0.33 0 0.66 0 1 0 C1.50828443 3.35296491 2.00511457 6.70753343 2.5 10.0625 C2.64308594 11.00544922 2.78617187 11.94839844 2.93359375 12.91992188 C3.67809139 18.00732242 4.17113566 22.8587994 4 28 C-0.00584062 24.55523582 -0.06717579 20.70046743 -0.8125 15.6875 C-1.03196289 14.42389648 -1.03196289 14.42389648 -1.25585938 13.13476562 C-2.028203 8.17080834 -2.11765194 4.72043868 0 0 Z " fill="#361E6B" transform="translate(406,429)"/>
<path d="M0 0 C0.66 0.33 1.32 0.66 2 1 C1.59007812 1.45890625 1.18015625 1.9178125 0.7578125 2.390625 C0.21898437 3.00421875 -0.31984375 3.6178125 -0.875 4.25 C-1.40867187 4.85328125 -1.94234375 5.4565625 -2.4921875 6.078125 C-4.0749494 7.94465433 -4.0749494 7.94465433 -5.0078125 10.171875 C-6 12 -6 12 -9 13 C-9 13.66 -9 14.32 -9 15 C-9.721875 15.061875 -10.44375 15.12375 -11.1875 15.1875 C-14.84657625 16.24456647 -16.49211602 18.20550071 -19 21 C-19.66 20.67 -20.32 20.34 -21 20 C-16.43826336 15.32907285 -11.78232678 10.86643388 -6.83203125 6.609375 C-4.43948191 4.50760458 -2.21633026 2.28559058 0 0 Z " fill="#311562" transform="translate(373,614)"/>
<path d="M0 0 C6.09030391 5.35011772 8.82038717 13.88977042 9.8125 21.8125 C9.874375 22.864375 9.93625 23.91625 10 25 C9.34 25 8.68 25 8 25 C8 23.02 8 21.04 8 19 C7.34 19 6.68 19 6 19 C5.66226563 18.07316406 5.32453125 17.14632812 4.9765625 16.19140625 C4.30753906 14.39509766 4.30753906 14.39509766 3.625 12.5625 C3.18414062 11.36753906 2.74328125 10.17257812 2.2890625 8.94140625 C1.32914764 5.89803102 1.32914764 5.89803102 -1 5 C-0.67 3.35 -0.34 1.7 0 0 Z " fill="#2C1C64" transform="translate(158,523)"/>
<path d="M0 0 C0.66 0.33 1.32 0.66 2 1 C-5.23237061 4.90938952 -12.2379859 7.90945945 -20.1875 10.04296875 C-22.97801127 10.99251772 -24.77260145 12.09921518 -27 14 C-26.8125 11.1875 -26.8125 11.1875 -26 8 C-23.11373339 5.72136847 -21.6952982 5 -18 5 C-18 5.66 -18 6.32 -18 7 C-9.9938724 4.57544905 -9.9938724 4.57544905 -2.375 1.1875 C-1.59125 0.795625 -0.8075 0.40375 0 0 Z " fill="#1C1458" transform="translate(142,444)"/>
<path d="M0 0 C0 3.60117934 -0.87727927 4.69935429 -2.84375 7.66796875 C-3.43027344 8.56064453 -4.01679688 9.45332031 -4.62109375 10.37304688 C-5.24113281 11.30181641 -5.86117188 12.23058594 -6.5 13.1875 C-7.12003906 14.12787109 -7.74007813 15.06824219 -8.37890625 16.03710938 C-9.91321536 18.3621778 -11.45376075 20.68285546 -13 23 C-14 21 -14 21 -14 17 C-13.34 17 -12.68 17 -12 17 C-11.34 14.69 -10.68 12.38 -10 10 C-9.01 10 -8.02 10 -7 10 C-6.67 8.35 -6.34 6.7 -6 5 C-5.01 5 -4.02 5 -3 5 C-3 3.68 -3 2.36 -3 1 C-2.01 0.67 -1.02 0.34 0 0 Z " fill="#21145A" transform="translate(470,207)"/>
<path d="M0 0 C0.33 1.32 0.66 2.64 1 4 C2.32 3.67 3.64 3.34 5 3 C6.5625 5.8125 6.5625 5.8125 8 9 C7.67 9.99 7.34 10.98 7 12 C6.48824219 11.05640625 5.97648438 10.1128125 5.44921875 9.140625 C2.4349099 5.27538686 0.52504144 4.82436178 -4.1875 3.75 C-6.46998139 3.21405174 -8.74499005 2.64178808 -11 2 C-11.33 1.34 -11.66 0.68 -12 0 C-7.91556885 -1.53166168 -4.20544343 -0.63081652 0 0 Z " fill="#781C6E" transform="translate(902,449)"/>
<path d="M0 0 C1.32 0.66 2.64 1.32 4 2 C-0.56574723 7.75933089 -5.17713268 13.45370258 -10 19 C-10 16.37886292 -9.68707555 14.49064888 -9 12 C-8.01 12 -7.02 12 -6 12 C-5.67 9.69 -5.34 7.38 -5 5 C-3.68 5 -2.36 5 -1 5 C-0.67 3.35 -0.34 1.7 0 0 Z " fill="#4A2879" transform="translate(369,493)"/>
<path d="M0 0 C1.54565084 0.09469402 3.08738537 0.25380268 4.625 0.4375 C9.44275498 0.92497324 14.22256626 1.11624258 19.0625 1.125 C20.33222656 1.12757813 21.60195313 1.13015625 22.91015625 1.1328125 C25.91130218 1.21451176 25.91130218 1.21451176 28 0 C30.125 0.9375 30.125 0.9375 32 2 C31 3 31 3 27.85717773 3.11352539 C26.46597303 3.11336633 25.07476239 3.10767506 23.68359375 3.09765625 C22.95253922 3.0962413 22.22148468 3.09482635 21.46827698 3.09336853 C19.12464368 3.08775408 16.78110461 3.07519922 14.4375 3.0625 C12.85221492 3.05748686 11.26692834 3.05292363 9.68164062 3.04882812 C5.7877239 3.03777997 1.89387795 3.02050572 -2 3 C-1 1 -1 1 0 0 Z " fill="#46227B" transform="translate(519,282)"/>
<path d="M0 0 C0.33 0 0.66 0 1 0 C1.0543965 2.37531394 1.09385864 4.74935883 1.125 7.125 C1.14175781 7.79015625 1.15851563 8.4553125 1.17578125 9.140625 C1.2343336 15.1129649 -0.19325995 19.78748276 -3 25 C-3.66 25 -4.32 25 -5 25 C-5.33 25.66 -5.66 26.32 -6 27 C-5.33333333 23.66666667 -4.66666667 20.33333333 -4 17 C-3.85433594 16.12730469 -3.70867187 15.25460937 -3.55859375 14.35546875 C-3 12 -3 12 -1 9 C-0.54605448 6.72087062 -0.54605448 6.72087062 -0.375 4.3125 C-0.30023438 3.50425781 -0.22546875 2.69601562 -0.1484375 1.86328125 C-0.09945312 1.24839844 -0.05046875 0.63351562 0 0 Z " fill="#32216C" transform="translate(223,406)"/>
<path d="M0 0 C4.24204453 3.11083265 4.80294119 6.397163 5.62890625 11.31640625 C6.1668679 15.20671837 6.62167235 19.0906143 7 23 C6.34 23.33 5.68 23.66 5 24 C4.16114623 20.56382292 3.32987081 17.12585663 2.5 13.6875 C2.14228516 12.22280273 2.14228516 12.22280273 1.77734375 10.72851562 C1.55175781 9.79072266 1.32617188 8.85292969 1.09375 7.88671875 C0.88427734 7.02264404 0.67480469 6.15856934 0.45898438 5.26831055 C0 3 0 3 0 0 Z " fill="#2F1362" transform="translate(609,327)"/>
<path d="M0 0 C0.99 0 1.98 0 3 0 C3 1.32 3 2.64 3 4 C3.66 4 4.32 4 5 4 C5 6.31 5 8.62 5 11 C5.33 11 5.66 11 6 11 C6.33 13.64 6.66 16.28 7 19 C6.34 19.33 5.68 19.66 5 20 C4.15960114 17.41877492 3.32749444 14.83536099 2.5 12.25 C2.26152344 11.52039063 2.02304687 10.79078125 1.77734375 10.0390625 C1.55175781 9.33007812 1.32617188 8.62109375 1.09375 7.890625 C0.88427734 7.24125977 0.67480469 6.59189453 0.45898438 5.92285156 C0 4 0 4 0 0 Z " fill="#3A1A6C" transform="translate(410,521)"/>
<path d="M0 0 C0.33 0.66 0.66 1.32 1 2 C0.2578125 3.8046875 0.2578125 3.8046875 -0.875 5.875 C-2.35050663 8.58869402 -3.32895841 10.98641323 -4 14 C-5.16079155 17.48237464 -6.06868381 18.01581316 -9 20.0625 C-12.01628184 22.07953853 -12.01628184 22.07953853 -14 25 C-14.66 24.67 -15.32 24.34 -16 24 C-15.14728516 22.90945313 -15.14728516 22.90945313 -14.27734375 21.796875 C-8.90302245 14.79859351 -4.26855441 7.74104401 0 0 Z " fill="#1F1657" transform="translate(216,434)"/>
<path d="M0 0 C3.25972311 3.00897517 5.79097246 6.33855439 8.40625 9.89453125 C10.79898798 13.05552578 13.38987475 16.01699972 16 19 C13.2081969 17.72778593 11.79914723 16.78857603 9.625 14.5 C6.80205767 11.8114835 4.73328751 10.95502704 1 10 C0.67 6.7 0.34 3.4 0 0 Z " fill="#311463" transform="translate(177,699)"/>
<path d="M0 0 C3.4375 1.1875 3.4375 1.1875 7 3 C7.875 5.5 7.875 5.5 8 8 C8.75150023 11.27773504 8.75150023 11.27773504 12 13 C11.01 13 10.02 13 9 13 C9.350625 13.598125 9.70125 14.19625 10.0625 14.8125 C11 17 11 17 10 20 C9.52949219 19.03578125 9.05898437 18.0715625 8.57421875 17.078125 C7.94552821 15.80197704 7.31660993 14.52594126 6.6875 13.25 C6.37876953 12.61578125 6.07003906 11.9815625 5.75195312 11.328125 C4.08214233 7.9533495 2.27086103 4.99054929 0 2 C0 1.34 0 0.68 0 0 Z " fill="#25185B" transform="translate(207,502)"/>
<path d="M0 0 C1 2 1 2 0.07421875 5.1875 C-0.38009848 6.46118703 -0.84270657 7.7319397 -1.3125 9 C-1.53873047 9.64195312 -1.76496094 10.28390625 -1.99804688 10.9453125 C-3.04046079 13.8172079 -3.81462202 15.81462202 -6 18 C-6.69748583 19.31747324 -7.36959957 20.64914193 -8 22 C-8.0984702 17.86425173 -7.77403558 14.06368679 -7 10 C-6.34 10 -5.68 10 -5 10 C-4.67 7.69 -4.34 5.38 -4 3 C-3.01 3 -2.02 3 -1 3 C-0.67 2.01 -0.34 1.02 0 0 Z " fill="#221E60" transform="translate(175,256)"/>
<path d="M0 0 C2 3 2 3 3 6 C4.99665598 7.67067133 6.99651034 9.33752986 9 11 C9 11.66 9 12.32 9 13 C9.99 13.33 10.98 13.66 12 14 C11.67 14.33 11.34 14.66 11 15 C12.98 15.99 14.96 16.98 17 18 C14 19 14 19 11.9140625 18.06640625 C6.51296522 14.51790377 2.53789029 11.05859104 0 5 C-0.3125 2 -0.3125 2 0 0 Z " fill="#341A62" transform="translate(223,667)"/>
<path d="M0 0 C3.11920338 0.33420036 3.95474254 0.94788534 6.0625 3.375 C6.701875 4.24125 7.34125 5.1075 8 6 C8.53625 6.45375 9.0725 6.9075 9.625 7.375 C11.76956968 9.90949143 12.22152168 12.82620378 13 16 C9.77531104 12.87608257 6.70607022 9.63668034 3.6875 6.3125 C2.99011719 5.54550781 2.29273438 4.77851563 1.57421875 3.98828125 C0 2 0 2 0 0 Z " fill="#2F1963" transform="translate(529,176)"/>
<path d="M0 0 C3.40833218 1.32681503 6.70189784 2.79633525 10 4.375 C16.15544709 7.20499409 22.49345961 9.14837722 29 11 C29 11.33 29 11.66 29 12 C21.57885476 11.74409844 15.80152362 9.42511972 9.13671875 6.375 C6.18800501 4.97157999 6.18800501 4.97157999 3.66015625 4.44140625 C2 4 2 4 0.75 1.9375 C0.5025 1.298125 0.255 0.65875 0 0 Z " fill="#260F5A" transform="translate(198,722)"/>
<path d="M0 0 C3.48231906 1.74115953 3.96238459 5.84666762 5.1875 9.375 C5.47302734 10.15617188 5.75855469 10.93734375 6.05273438 11.7421875 C6.31763672 12.495 6.58253906 13.2478125 6.85546875 14.0234375 C7.09934326 14.71356934 7.34321777 15.40370117 7.59448242 16.11474609 C8 18 8 18 7 21 C7 20.34 7 19.68 7 19 C6.34 19 5.68 19 5 19 C4.67 17.68 4.34 16.36 4 15 C3.34 15 2.68 15 2 15 C2.04125 14.01 2.0825 13.02 2.125 12 C2.1423348 7.76164134 1.14191162 4.06806015 0 0 Z " fill="#371667" transform="translate(441,569)"/>
<path d="M0 0 C0 4.17561407 -1.83352478 5.53957787 -4.5 8.6875 C-5.3353125 9.68136719 -6.170625 10.67523437 -7.03125 11.69921875 C-8.00578125 12.83810547 -8.00578125 12.83810547 -9 14 C-9.66 13.34 -10.32 12.68 -11 12 C-10.67 11.01 -10.34 10.02 -10 9 C-7.9375 8.3125 -7.9375 8.3125 -6 8 C-6 6.02 -6 4.04 -6 2 C-4.02 1.34 -2.04 0.68 0 0 Z " fill="#321766" transform="translate(350,520)"/>
<path d="M0 0 C0 0.99 0 1.98 0 3 C-1.46688037 4.27554815 -2.93976866 5.54881117 -4.4921875 6.71875 C-6.27499979 8.11472845 -6.27499979 8.11472845 -8 11 C-10.625 11.1875 -10.625 11.1875 -13 11 C-12.06409496 9.8944811 -11.12620142 8.79064547 -10.1875 7.6875 C-9.66542969 7.07261719 -9.14335938 6.45773437 -8.60546875 5.82421875 C-4.10210655 0.70725975 -4.10210655 0.70725975 0 0 Z " fill="#741767" transform="translate(879,510)"/>
<path d="M0 0 C0.33 0.66 0.66 1.32 1 2 C0.19555664 3.87939453 0.19555664 3.87939453 -1.08984375 6.1328125 C-1.54423828 6.93847656 -1.99863281 7.74414062 -2.46679688 8.57421875 C-2.95212891 9.41597656 -3.43746094 10.25773438 -3.9375 11.125 C-4.41896484 11.97449219 -4.90042969 12.82398438 -5.39648438 13.69921875 C-6.59057183 15.80365011 -7.79196837 17.90355191 -9 20 C-10.33727591 15.98817226 -9.25593062 14.27830293 -7.75 10.375 C-7.31171875 9.20710937 -6.8734375 8.03921875 -6.421875 6.8359375 C-5 4 -5 4 -2 3 C-1.34 2.01 -0.68 1.02 0 0 Z " fill="#23135C" transform="translate(455,230)"/>
<path d="M0 0 C0.94359375 0.32484375 0.94359375 0.32484375 1.90625 0.65625 C6.20080782 2.05327483 9.95465634 3.20052987 14.5 3 C15.655 3 16.81 3 18 3 C18.99 4.485 18.99 4.485 20 6 C17.98177083 5.96744792 15.96354167 5.93489583 13.9453125 5.90234375 C11.91814596 5.87350758 11.91814596 5.87350758 10 7 C9.34 6.34 8.68 5.68 8 5 C6.68 5 5.36 5 4 5 C4 4.34 4 3.68 4 3 C2.68 3 1.36 3 0 3 C0 2.01 0 1.02 0 0 Z " fill="#5D2982" transform="translate(212,730)"/>
<path d="M0 0 C2.90118942 0.46419031 4.40719244 0.44077954 7.125 -0.5 C6.135 0.985 6.135 0.985 5.125 2.5 C3.06201172 2.84057617 3.06201172 2.84057617 0.5546875 2.79296875 C-0.34121094 2.78330078 -1.23710938 2.77363281 -2.16015625 2.76367188 C-3.56587891 2.7259668 -3.56587891 2.7259668 -5 2.6875 C-5.94488281 2.67396484 -6.88976562 2.66042969 -7.86328125 2.64648438 C-10.20108779 2.61106306 -12.53776237 2.56167271 -14.875 2.5 C-14.545 1.84 -14.215 1.18 -13.875 0.5 C-12.93527344 0.51740234 -12.93527344 0.51740234 -11.9765625 0.53515625 C-10.75066406 0.54869141 -10.75066406 0.54869141 -9.5 0.5625 C-8.28183594 0.57990234 -8.28183594 0.57990234 -7.0390625 0.59765625 C-4.0335178 0.46202698 -3.1453454 -0.54701659 0 0 Z " fill="#651F81" transform="translate(552.875,609.5)"/>
<path d="M0 0 C1 2 1 2 0.22265625 4.8203125 C-0.16019531 5.91085937 -0.54304687 7.00140625 -0.9375 8.125 C-1.31777344 9.22070312 -1.69804688 10.31640625 -2.08984375 11.4453125 C-2.54037109 12.70988281 -2.54037109 12.70988281 -3 14 C-2.34 14.33 -1.68 14.66 -1 15 C-1.33 16.32 -1.66 17.64 -2 19 C-2.99 19 -3.98 19 -5 19 C-5.66 19.66 -6.32 20.32 -7 21 C-5.62820313 13.51747162 -3.07836721 6.94395046 0 0 Z " fill="#391161" transform="translate(583,565)"/>
<path d="M0 0 C5.3732231 2.47994912 9.97062369 5.66067166 14 10 C13.67 10.66 13.34 11.32 13 12 C12.5875 11.525625 12.175 11.05125 11.75 10.5625 C9.79016559 8.81264784 8.51491559 8.56788417 6 8 C5.34 7.34 4.68 6.68 4 6 C3.01 6.495 3.01 6.495 2 7 C2 5.68 2 4.36 2 3 C1.34 2.67 0.68 2.34 0 2 C0 1.34 0 0.68 0 0 Z " fill="#341E6B" transform="translate(144,511)"/>
<path d="M0 0 C0 4.2650016 -2.44473414 6.50032379 -5 9.6875 C-5.71542969 10.59725586 -5.71542969 10.59725586 -6.4453125 11.52539062 C-7.62376394 13.02202396 -8.81105188 14.51169173 -10 16 C-10.66 15.67 -11.32 15.34 -12 15 C-12 14.01 -12 13.02 -12 12 C-11.34 12 -10.68 12 -10 12 C-9.67 11.34 -9.34 10.68 -9 10 C-8.34 9.67 -7.68 9.34 -7 9 C-6.34786708 6.97536745 -6.34786708 6.97536745 -6 5 C-5.34 5 -4.68 5 -4 5 C-4 4.34 -4 3.68 -4 3 C-2 1.375 -2 1.375 0 0 Z " fill="#26165D" transform="translate(484,188)"/>
<path d="M0 0 C0.33 0.66 0.66 1.32 1 2 C1.66 2.33 2.32 2.66 3 3 C2.67 4.98 2.34 6.96 2 9 C1.01 8.67 0.02 8.34 -1 8 C-1.39832031 8.84884766 -1.39832031 8.84884766 -1.8046875 9.71484375 C-2.33449219 10.81505859 -2.33449219 10.81505859 -2.875 11.9375 C-3.22304688 12.66839844 -3.57109375 13.39929688 -3.9296875 14.15234375 C-5 16 -5 16 -7 17 C-5.24009216 11.08030998 -2.60305395 5.58365008 0 0 Z " fill="#992479" transform="translate(853,686)"/>
<path d="M0 0 C6.7553681 5.13266871 6.7553681 5.13266871 7.6875 8.4375 C7.790625 9.283125 7.89375 10.12875 8 11 C8.67112616 12.24987059 9.38301954 13.47834666 10.125 14.6875 C10.74375 15.780625 11.3625 16.87375 12 18 C11.67 18.66 11.34 19.32 11 20 C9.15947576 17.0460832 7.32882635 14.08617092 5.5 11.125 C4.97535156 10.28324219 4.45070313 9.44148437 3.91015625 8.57421875 C3.41386719 7.76855469 2.91757812 6.96289062 2.40625 6.1328125 C1.71499023 5.01737061 1.71499023 5.01737061 1.00976562 3.87939453 C0 2 0 2 0 0 Z " fill="#26135A" transform="translate(563,222)"/>
<path d="M0 0 C0.66796875 1.7734375 0.66796875 1.7734375 1 4 C-0.07421875 5.8515625 -0.07421875 5.8515625 -1.6875 7.625 C-2.20699219 8.21539063 -2.72648438 8.80578125 -3.26171875 9.4140625 C-5.0703504 11.06418486 -6.76855046 12.01796774 -9 13 C-7.50923566 9.7173068 -5.61379679 7.06922559 -3.375 4.25 C-2.74335937 3.45078125 -2.11171875 2.6515625 -1.4609375 1.828125 C-0.97882812 1.22484375 -0.49671875 0.6215625 0 0 Z " fill="#5E1768" transform="translate(540,771)"/>
<path d="M0 0 C1.125 1.75 1.125 1.75 2 4 C1.24013946 6.58352584 0.53637969 7.67128944 -1.765625 9.08203125 C-4.29328672 10.12049367 -6.40452638 10.37166081 -9.125 10.5625 C-12.69798773 10.78049065 -12.69798773 10.78049065 -16 12 C-16 11.34 -16 10.68 -16 10 C-16.99 9.67 -17.98 9.34 -19 9 C-17.86820313 8.86722656 -16.73640625 8.73445313 -15.5703125 8.59765625 C-14.08851821 8.4194658 -12.60674864 8.24106971 -11.125 8.0625 C-10.37863281 7.97548828 -9.63226562 7.88847656 -8.86328125 7.79882812 C-4.8046769 7.36673937 -4.8046769 7.36673937 -1 6 C-0.34227572 2.97065509 -0.34227572 2.97065509 0 0 Z " fill="#482379" transform="translate(584,260)"/>
<path d="M0 0 C0.66 0.99 1.32 1.98 2 3 C1.01 3.33 0.02 3.66 -1 4 C-1.33 4.99 -1.66 5.98 -2 7 C-5.3 7.33 -8.6 7.66 -12 8 C-9.26356459 5.94767344 -6.64311135 4.09658533 -3.75 2.3125 C-2.69039062 1.65701172 -2.69039062 1.65701172 -1.609375 0.98828125 C-1.07828125 0.66214844 -0.5471875 0.33601562 0 0 Z " fill="#821561" transform="translate(825,721)"/>
<path d="M0 0 C0.66 0 1.32 0 2 0 C4.64665573 2.85838819 5.44270682 5.19182992 6 9 C6.65528379 12.61537648 6.65528379 12.61537648 8 16 C7.34 16.99 6.68 17.98 6 19 C4.02 12.73 2.04 6.46 0 0 Z " fill="#28115F" transform="translate(396,477)"/>
<path d="M0 0 C-0.825 0.45375 -1.65 0.9075 -2.5 1.375 C-3.325 1.91125 -4.15 2.4475 -5 3 C-5 3.66 -5 4.32 -5 5 C-7.31 5.33 -9.62 5.66 -12 6 C-12.33 4.68 -12.66 3.36 -13 2 C-11.21089097 1.47044766 -9.41860852 0.9516063 -7.625 0.4375 C-6.62726562 0.14746094 -5.62953125 -0.14257812 -4.6015625 -0.44140625 C-2 -1 -2 -1 0 0 Z " fill="#861966" transform="translate(812,730)"/>
<path d="M0 0 C1.18414294 3.55242882 0.69535532 4.69830562 -0.4375 8.1875 C-0.72496094 9.08855469 -1.01242187 9.98960937 -1.30859375 10.91796875 C-1.53675781 11.60503906 -1.76492188 12.29210937 -2 13 C-4.2344598 8.96707255 -4.54496743 5.55032566 -5 1 C-2.525 1.495 -2.525 1.495 0 2 C0 1.34 0 0.68 0 0 Z " fill="#53166D" transform="translate(502,690)"/>
<path d="M0 0 C3.89915078 2.31060787 5.60334547 5.40795615 7.75390625 9.2578125 C8.96793946 11.31578939 8.96793946 11.31578939 12 12 C12 13.98 12 15.96 12 18 C8.69955174 14.922555 6.24183581 11.63121175 3.75 7.875 C3.04359375 6.82054687 2.3371875 5.76609375 1.609375 4.6796875 C0 2 0 2 0 0 Z " fill="#241259" transform="translate(551,204)"/>
<path d="M0 0 C2.6855594 2.6855594 3.06049974 5.37621328 4 9 C5.32 9.33 6.64 9.66 8 10 C7.6875 11.875 7.6875 11.875 7 14 C6.01 14.66 5.02 15.32 4 16 C3.32586789 14.08594633 2.6609668 12.16863974 2 10.25 C1.62875 9.18265625 1.2575 8.1153125 0.875 7.015625 C0 4 0 4 0 0 Z " fill="#341565" transform="translate(416,542)"/>
<path d="M0 0 C1 3 1 3 0 6 C0.99 6.33 1.98 6.66 3 7 C2.67 7.66 2.34 8.32 2 9 C1.01 9.33 0.02 9.66 -1 10 C-2.01754868 11.8653245 -2.01754868 11.8653245 -2.6875 14.0625 C-2.93886719 14.79597656 -3.19023438 15.52945313 -3.44921875 16.28515625 C-3.63097656 16.85105469 -3.81273437 17.41695312 -4 18 C-5.72251754 13.9154674 -4.07280563 10.63026304 -2.5625 6.75 C-2.31951172 6.1003125 -2.07652344 5.450625 -1.82617188 4.78125 C-1.22714006 3.18383183 -0.61485679 1.59139406 0 0 Z " fill="#381162" transform="translate(596,525)"/>
<path d="M0 0 C5.65253308 1.37031105 8.5113541 5.67689413 12 10 C11.67 10.66 11.34 11.32 11 12 C9.34786411 10.56974806 7.70347411 9.13054455 6.0625 7.6875 C5.14597656 6.88699219 4.22945312 6.08648438 3.28515625 5.26171875 C1 3 1 3 0 0 Z " fill="#4C1463" transform="translate(548,662)"/>
<path d="M0 0 C0.33 0 0.66 0 1 0 C1.33 5.61 1.66 11.22 2 17 C1.67 17 1.34 17 1 17 C-2.25601751 7.1619256 -2.25601751 7.1619256 -1.1875 2.3125 C-0.795625 1.549375 -0.40375 0.78625 0 0 Z " fill="#291662" transform="translate(406,429)"/>
<path d="M0 0 C0.99 0 1.98 0 3 0 C3 2.31 3 4.62 3 7 C3.66 7 4.32 7 5 7 C7.10865385 10.47307692 7.10865385 10.47307692 6.55859375 13.140625 C6.28208984 14.06101562 6.28208984 14.06101562 6 15 C4.98965502 13.25595212 3.99207578 11.50450439 3 9.75 C2.1646875 8.28820312 2.1646875 8.28820312 1.3125 6.796875 C0 4 0 4 0 0 Z " fill="#5A125D" transform="translate(858,415)"/>
<path d="M0 0 C5.45156722 3.27094033 9.61869443 7.41853326 14 12 C11 12 11 12 9.31640625 10.5390625 C8.73761719 9.90742187 8.15882813 9.27578125 7.5625 8.625 C5.19797932 6.05417885 3.21522145 4.39915131 0 3 C0 2.01 0 1.02 0 0 Z " fill="#41155D" transform="translate(634,600)"/>
<path d="M0 0 C0.66 0.33 1.32 0.66 2 1 C0.7934375 2.11375 0.7934375 2.11375 -0.4375 3.25 C-2.76988591 5.75304829 -3.63534394 6.7180955 -4 10 C-5.98 10.33 -7.96 10.66 -10 11 C-6.79239749 7.19364503 -3.59253891 3.45436433 0 0 Z " fill="#5A2882" transform="translate(409,582)"/>
<path d="M0 0 C2.85212766 2.85212766 2.73901015 5.01990482 3 9 C2.52944399 11.45259494 1.82239721 13.62956099 1 16 C0.67 16 0.34 16 0 16 C0 10.72 0 5.44 0 0 Z " fill="#511C79" transform="translate(620,391)"/>
<path d="M0 0 C0.66 0 1.32 0 2 0 C0.44191344 9.59453303 0.44191344 9.59453303 -4 13 C-4 11.02 -4 9.04 -4 7 C-3.34 7 -2.68 7 -2 7 C-1.34 4.69 -0.68 2.38 0 0 Z " fill="#311C67" transform="translate(460,217)"/>
<path d="M0 0 C1.98 0 3.96 0 6 0 C3.1957631 3.11581877 0.90750982 4.56039112 -3 6 C-3.66 6.66 -4.32 7.32 -5 8 C-5.33 6.68 -5.66 5.36 -6 4 C-4.7934375 3.566875 -4.7934375 3.566875 -3.5625 3.125 C-0.8673532 2.26737432 -0.8673532 2.26737432 0 0 Z " fill="#98267A" transform="translate(812,728)"/>
<path d="M0 0 C0.33 0 0.66 0 1 0 C1.10251672 5.12583611 1.03590199 9.94997778 0 15 C-0.33 15 -0.66 15 -1 15 C-1.185625 13.6078125 -1.185625 13.6078125 -1.375 12.1875 C-1.81533082 8.86074765 -1.81533082 8.86074765 -4 6 C-2.68 5.34 -1.36 4.68 0 4 C0 2.68 0 1.36 0 0 Z " fill="#23135D" transform="translate(406,362)"/>
<path d="M0 0 C1.67110042 2.96178773 2.32682752 5.37071192 2.625 8.75 C2.69976563 9.54921875 2.77453125 10.3484375 2.8515625 11.171875 C2.90054688 11.77515625 2.94953125 12.3784375 3 13 C2.01 13.495 2.01 13.495 1 14 C-1.48063781 4.58997722 -1.48063781 4.58997722 0 0 Z " fill="#40186E" transform="translate(613,337)"/>
<path d="M0 0 C0.99 0.33 1.98 0.66 3 1 C3 3 3 3 1.375 5.125 C-1.60465619 7.47736015 -3.29706315 7.33663062 -7 7 C-4 5 -4 5 -2 5 C-1.855625 4.360625 -1.71125 3.72125 -1.5625 3.0625 C-1 1 -1 1 0 0 Z " fill="#2F256D" transform="translate(284,262)"/>
<path d="M0 0 C2 3 2 3 3 5 C5.01669827 6.13350534 5.01669827 6.13350534 7 7 C6.67 8.32 6.34 9.64 6 11 C3.5625 9.4375 3.5625 9.4375 1 7 C0.1875 3.25 0.1875 3.25 0 0 Z " fill="#3F2A78" transform="translate(112,491)"/>
<path d="M0 0 C1.32 0.33 2.64 0.66 4 1 C3.34 1.66 2.68 2.32 2 3 C1.566875 4.2065625 1.566875 4.2065625 1.125 5.4375 C-0.14106224 8.32130844 -1.37684406 9.3386679 -4 11 C-3.625 8.0625 -3.625 8.0625 -3 5 C-2.34 4.67 -1.68 4.34 -1 4 C-0.34786708 1.97536745 -0.34786708 1.97536745 0 0 Z " fill="#3C216D" transform="translate(377,483)"/>
<path d="M0 0 C2.64 0 5.28 0 8 0 C9.5625 2.8125 9.5625 2.8125 11 6 C10.67 6.99 10.34 7.98 10 9 C9.46375 8.05125 8.9275 7.1025 8.375 6.125 C5.7207791 2.63260408 4.19162145 1.95264124 0 1 C0 0.67 0 0.34 0 0 Z " fill="#6C135C" transform="translate(899,452)"/>
<path d="M0 0 C0 3.86695678 -1.41909971 6.5088452 -3 10 C-3.66 10 -4.32 10 -5 10 C-5.33 10.99 -5.66 11.98 -6 13 C-5.63118644 6.85310727 -4.09949571 4.30972626 0 0 Z " fill="#171350" transform="translate(229,274)"/>
<path d="M0 0 C2.10827055 3.16240582 2.33817465 4.50657469 2.625 8.1875 C2.69976562 9.08855469 2.77453125 9.98960937 2.8515625 10.91796875 C2.90054687 11.60503906 2.94953125 12.29210937 3 13 C2.67 12.34 2.34 11.68 2 11 C1.34 11 0.68 11 0 11 C0 7.37 0 3.74 0 0 Z " fill="#291660" transform="translate(410,458)"/>
<path d="M0 0 C0.33 0.99 0.66 1.98 1 3 C1.66 3 2.32 3 3 3 C2.67 7.29 2.34 11.58 2 16 C1.67 16 1.34 16 1 16 C0.08342019 10.61509359 -0.11138159 5.45769811 0 0 Z " fill="#2B0D5D" transform="translate(617,364)"/>
<path d="M0 0 C0.66 0.33 1.32 0.66 2 1 C0.8553125 2.0828125 0.8553125 2.0828125 -0.3125 3.1875 C-2.71133591 5.69790967 -4.35410221 7.96808302 -6 11 C-6.8125 9.3125 -6.8125 9.3125 -7 7 C-4.6875 4.375 -4.6875 4.375 -2 2 C-1.34 1.34 -0.68 0.68 0 0 Z " fill="#352A76" transform="translate(234,271)"/>
<path d="M0 0 C3.465 1.485 3.465 1.485 7 3 C7 4.32 7 5.64 7 7 C4.625 6.3125 4.625 6.3125 2 5 C0.6875 2.375 0.6875 2.375 0 0 Z " fill="#321D68" transform="translate(207,502)"/>
<path d="M0 0 C1.5625 1.1875 1.5625 1.1875 3 3 C2.91225183 6.4221787 2.22726163 7.74519151 -0.0625 10.3125 C-1.0215625 11.1478125 -1.0215625 11.1478125 -2 12 C-2.66 11.67 -3.32 11.34 -4 11 C-2.625 9 -2.625 9 -1 7 C-0.34 7 0.32 7 1 7 C0.67 4.69 0.34 2.38 0 0 Z " fill="#560F58" transform="translate(839,472)"/>
<path d="M0 0 C0.66 0.66 1.32 1.32 2 2 C1.34 4.31 0.68 6.62 0 9 C-1.32 9.33 -2.64 9.66 -4 10 C-2.8905928 6.51329166 -1.73662334 3.22515763 0 0 Z " fill="#40287A" transform="translate(216,436)"/>
<path d="M0 0 C0.99 0.33 1.98 0.66 3 1 C1.8141763 4.37503669 0.72426311 6.64722731 -2 9 C-2.125 5.625 -2.125 5.625 -2 2 C-1.34 1.34 -0.68 0.68 0 0 Z " fill="#1D1959" transform="translate(178,247)"/>
<path d="M0 0 C0.66 0.66 1.32 1.32 2 2 C1.34 2.66 0.68 3.32 0 4 C-2.3828125 3.9765625 -2.3828125 3.9765625 -5.125 3.625 C-6.03507813 3.51414063 -6.94515625 3.40328125 -7.8828125 3.2890625 C-8.58148438 3.19367188 -9.28015625 3.09828125 -10 3 C-10 2.34 -10 1.68 -10 1 C-8.37675914 0.77837671 -6.751279 0.57310197 -5.125 0.375 C-4.22007812 0.25898438 -3.31515625 0.14296875 -2.3828125 0.0234375 C-1.59648437 0.01570312 -0.81015625 0.00796875 0 0 Z " fill="#312B74" transform="translate(233,216)"/>
<path d="M0 0 C0.6875 1.8125 0.6875 1.8125 1 4 C-0.4375 5.75 -0.4375 5.75 -2 7 C-3.32 6.34 -4.64 5.68 -6 5 C-4.02 3.35 -2.04 1.7 0 0 Z " fill="#7B237F" transform="translate(686,631)"/>
<path d="M0 0 C2.55803184 3.83704776 4.34505724 7.75712791 3.625 12.4375 C3.41875 12.953125 3.2125 13.46875 3 14 C2.71125 13.030625 2.4225 12.06125 2.125 11.0625 C1.35785318 7.89335797 1.35785318 7.89335797 -1 7 C-0.67 4.69 -0.34 2.38 0 0 Z " fill="#552982" transform="translate(420,505)"/>
<path d="M0 0 C0.33 0 0.66 0 1 0 C1.21192221 5.19209404 0.5912689 9.126739 -1 14 C-2.18005182 10.31233808 -2.20993972 6.84889483 -2 3 C-1.34 2.01 -0.68 1.02 0 0 Z " fill="#972778" transform="translate(856,672)"/>
<path d="M0 0 C-1.423125 0.928125 -1.423125 0.928125 -2.875 1.875 C-5.94445109 3.81970969 -5.94445109 3.81970969 -8 6 C-8 5.34 -8 4.68 -8 4 C-8.66 3.67 -9.32 3.34 -10 3 C-3.375 -1.125 -3.375 -1.125 0 0 Z " fill="#8D247E" transform="translate(891,506)"/>
<path d="M0 0 C0 3.58912412 -0.66436554 4.10857029 -3 6.6875 C-3.556875 7.31011719 -4.11375 7.93273437 -4.6875 8.57421875 C-5.120625 9.04472656 -5.55375 9.51523437 -6 10 C-6 5.46153846 -6 5.46153846 -5 3 C-2.4375 1.25 -2.4375 1.25 0 0 Z " fill="#25145A" transform="translate(365,502)"/>
<path d="M0 0 C0.99 0 1.98 0 3 0 C3 0.66 3 1.32 3 2 C3.66 1.67 4.32 1.34 5 1 C6.99960012 0.960008 9.00047242 0.95653201 11 1 C11.33 1.66 11.66 2.32 12 3 C11.113125 2.979375 10.22625 2.95875 9.3125 2.9375 C6.37830369 2.99286219 3.84506304 3.3305734 1 4 C0.67 2.68 0.34 1.36 0 0 Z " fill="#2D1764" transform="translate(384,474)"/>
<path d="M0 0 C2.72426311 2.35277269 3.8141763 4.62496331 5 8 C2.0625 7.1875 2.0625 7.1875 -1 6 C-1.33 5.01 -1.66 4.02 -2 3 C-1.34 2.67 -0.68 2.34 0 2 C0 1.34 0 0.68 0 0 Z " fill="#5E1865" transform="translate(811,442)"/>
<path d="M0 0 C0.66 0.33 1.32 0.66 2 1 C2 1.66 2 2.32 2 3 C-0.3125 5.1875 -0.3125 5.1875 -3 7 C-3.99 6.67 -4.98 6.34 -6 6 C-5.34 5.01 -4.68 4.02 -4 3 C-3.01 3 -2.02 3 -1 3 C-0.67 2.01 -0.34 1.02 0 0 Z " fill="#292562" transform="translate(196,230)"/>
<path d="M0 0 C2 3 2 3 3 6 C4.49985609 7.66710346 4.49985609 7.66710346 6 9 C5.34 9.66 4.68 10.32 4 11 C1.17438373 7.20307814 -0.56638908 4.81430721 0 0 Z " fill="#2A145D" transform="translate(223,667)"/>
<path d="M0 0 C1.98 0 3.96 0 6 0 C5.34 1.65 4.68 3.3 4 5 C2.68 4.34 1.36 3.68 0 3 C0 2.01 0 1.02 0 0 Z " fill="#8E227B" transform="translate(792,672)"/>
<path d="M0 0 C2.475 0.495 2.475 0.495 5 1 C5.625 2.8125 5.625 2.8125 6 5 C5.01 6.485 5.01 6.485 4 8 C2.68 5.36 1.36 2.72 0 0 Z " fill="#491365" transform="translate(681,530)"/>
<path d="M0 0 C4.66666667 1.47368421 4.66666667 1.47368421 6.1875 3.875 C6.455625 4.57625 6.72375 5.2775 7 6 C7.37125 6.7425 7.7425 7.485 8.125 8.25 C8.558125 9.11625 8.558125 9.11625 9 10 C5.06451569 6.93906776 2.31883213 4.50884026 0 0 Z " fill="#201655" transform="translate(198,492)"/>
<path d="M0 0 C0.99 0.33 1.98 0.66 3 1 C2.25 6.75 2.25 6.75 0 9 C-0.84454356 5.62182575 -1.10844919 3.32534757 0 0 Z " fill="#5B2380" transform="translate(611,472)"/>
<path d="M0 0 C3.36591866 1.44253657 5.51047079 3.33264727 8 6 C5.36 5.34 2.72 4.68 0 4 C0 2.66666667 0 1.33333333 0 0 Z " fill="#5B125F" transform="translate(831,466)"/>
<path d="M0 0 C0.33 0.66 0.66 1.32 1 2 C-0.73397418 5.65047197 -2.19333016 7.55609075 -6 9 C-6 8.01 -6 7.02 -6 6 C-5.34 6 -4.68 6 -4 6 C-3.71125 5.38125 -3.4225 4.7625 -3.125 4.125 C-2 2 -2 2 0 0 Z " fill="#40287A" transform="translate(206,453)"/>
<path d="M0 0 C0.66 0 1.32 0 2 0 C3.15837626 4.05431692 2.83691257 6.21812119 1 10 C0.67 10 0.34 10 0 10 C0 6.7 0 3.4 0 0 Z " fill="#2D1966" transform="translate(416,310)"/>
<path d="M0 0 C0 3.99904969 -1.72586967 5.80200422 -4 9 C-5.32 8.67 -6.64 8.34 -8 8 C-5.33333333 5.33333333 -2.66666667 2.66666667 0 0 Z " fill="#7E2380" transform="translate(520,799)"/>
<path d="M0 0 C0.28875 0.639375 0.5775 1.27875 0.875 1.9375 C1.82823451 4.15206079 1.82823451 4.15206079 4 5 C4 5.99 4 6.98 4 8 C1.525 7.01 1.525 7.01 -1 6 C-1.042721 4.33388095 -1.04063832 2.66617115 -1 1 C-0.67 0.67 -0.34 0.34 0 0 Z " fill="#4D2276" transform="translate(449,589)"/>
<path d="M0 0 C1.32 0 2.64 0 4 0 C3.64950425 3.24208567 3.43778819 4.61527704 0.9375 6.8125 C0.298125 7.204375 -0.34125 7.59625 -1 8 C-0.649375 7.236875 -0.29875 6.47375 0.0625 5.6875 C1.32360884 2.95240621 1.32360884 2.95240621 0 0 Z " fill="#661567" transform="translate(816,496)"/>
<path d="M0 0 C0 2.62113708 -0.31292445 4.50935112 -1 7 C-2.32 7.33 -3.64 7.66 -5 8 C-3.62845496 5.04590299 -2.01136276 2.55991624 0 0 Z " fill="#521260" transform="translate(549,759)"/>
<path d="M0 0 C1.32 0.66 2.64 1.32 4 2 C2.35 3.65 0.7 5.3 -1 7 C-0.67 4.69 -0.34 2.38 0 0 Z " fill="#311863" transform="translate(369,493)"/>
<path d="M0 0 C1 3 1 3 0.0625 5.1875 C-0.4634375 6.0846875 -0.4634375 6.0846875 -1 7 C-1.66 6.67 -2.32 6.34 -3 6 C-3 3 -3 3 -1.5 1.3125 C-0.7575 0.6628125 -0.7575 0.6628125 0 0 Z " fill="#471970" transform="translate(286,729)"/>
<path d="M0 0 C2.18975773 3.28463659 2.99806563 6.20696275 4 10 C3.34 10 2.68 10 2 10 C2 9.34 2 8.68 2 8 C1.34 8 0.68 8 0 8 C0 5.36 0 2.72 0 0 Z " fill="#592A82" transform="translate(433,548)"/>
<path d="M0 0 C0.95465783 2.16967689 1.14401212 3.56328793 0.3984375 5.82421875 C-0.35870385 7.5684743 -1.17609198 9.28627131 -2 11 C-2.33 11 -2.66 11 -3 11 C-3.39253254 6.55129785 -2.15305957 3.85756507 0 0 Z " fill="#3F2C7B" transform="translate(164,413)"/>
<path d="M0 0 C1.1577506 3.47325181 1.06866652 6.36067448 1 10 C-1.59482129 7.40517871 -1.69990302 5.60116375 -2 2 C-1.34 1.34 -0.68 0.68 0 0 Z " fill="#552480" transform="translate(607,307)"/>
<path d="M0 0 C2.91517292 1.07401108 4.77810176 1.77810176 7 4 C5.02 4.99 5.02 4.99 3 6 C2.01 4.02 1.02 2.04 0 0 Z " fill="#522681" transform="translate(569,230)"/>
</svg>
